<svg xmlns="http://www.w3.org/2000/svg" xmlns:xlink="http://www.w3.org/1999/xlink" width="32" zoomAndPan="magnify" viewBox="0 0 24 23.999999" height="32" preserveAspectRatio="xMidYMid meet" version="1.2"><defs><clipPath id="fdde2478d8"><path d="M 0 10.308594 L 6.722656 10.308594 L 6.722656 13.667969 L 0 13.667969 Z M 0 10.308594 "/></clipPath><clipPath id="e911251902"><path d="M 6.722656 11.980469 C 6.722656 12.90625 5.972656 13.65625 5.046875 13.65625 L 1.703125 13.65625 C 0.777344 13.65625 0.0117188 12.917969 0.0078125 11.996094 C 0 11.0625 0.753906 10.308594 1.679688 10.308594 L 5.046875 10.308594 C 5.972656 10.308594 6.722656 11.058594 6.722656 11.980469 "/></clipPath><clipPath id="74172ef6bf"><path d="M 2.945312 3.179688 L 6.722656 3.179688 L 6.722656 9.339844 L 2.945312 9.339844 Z M 2.945312 3.179688 "/></clipPath><clipPath id="126e595496"><path d="M 6.722656 5.875 L 6.722656 9.328125 L 3.445312 6.046875 C 2.792969 5.394531 2.792969 4.335938 3.445312 3.679688 C 4.097656 3.027344 5.160156 3.027344 5.8125 3.679688 C 6.394531 4.261719 6.722656 5.050781 6.722656 5.875 "/></clipPath><clipPath id="bd56ecf04b"><path d="M 2.945312 14.636719 L 6.722656 14.636719 L 6.722656 20.78125 L 2.945312 20.78125 Z M 2.945312 14.636719 "/></clipPath><clipPath id="127b8670d1"><path d="M 6.722656 14.636719 L 6.722656 18.085938 C 6.722656 18.910156 6.394531 19.699219 5.8125 20.28125 C 5.160156 20.9375 4.101562 20.9375 3.445312 20.28125 C 2.789062 19.628906 2.792969 18.570312 3.445312 17.914062 Z M 6.722656 14.636719 "/></clipPath><clipPath id="0374272700"><path d="M 10.070312 0.234375 L 13.449219 0.234375 L 13.449219 6.566406 L 10.070312 6.566406 Z M 10.070312 0.234375 "/></clipPath><clipPath id="e018d62bdf"><path d="M 13.421875 1.9375 C 13.421875 2.746094 13.097656 3.523438 12.527344 4.097656 L 10.070312 6.550781 L 10.070312 1.914062 C 10.070312 0.988281 10.828125 0.234375 11.757812 0.242188 C 12.683594 0.25 13.421875 1.015625 13.421875 1.9375 "/></clipPath><clipPath id="455801c0f1"><path d="M 10.070312 17.402344 L 13.449219 17.402344 L 13.449219 23.734375 L 10.070312 23.734375 Z M 10.070312 17.402344 "/></clipPath><clipPath id="b210bd1538"><path d="M 12.511719 19.851562 C 13.09375 20.433594 13.421875 21.222656 13.421875 22.046875 C 13.421875 22.90625 12.769531 23.617188 11.933594 23.710938 C 11.871094 23.710938 11.808594 23.710938 11.746094 23.710938 C 11.683594 23.710938 11.621094 23.710938 11.558594 23.710938 C 10.722656 23.617188 10.070312 22.90625 10.070312 22.046875 L 10.070312 17.410156 Z M 12.511719 19.851562 "/></clipPath><clipPath id="9819a63b6b"><path d="M 10.070312 3.191406 L 23.488281 3.191406 L 23.488281 20.78125 L 10.070312 20.78125 Z M 10.070312 3.191406 "/></clipPath><clipPath id="5cfa53dc74"><path d="M 23.484375 11.894531 C 23.535156 12.855469 22.746094 13.65625 21.78125 13.65625 L 15.804688 13.65625 C 15.796875 13.65625 15.796875 13.664062 15.800781 13.667969 L 20.046875 17.914062 C 20.703125 18.570312 20.703125 19.628906 20.046875 20.28125 C 19.398438 20.933594 18.34375 20.9375 17.691406 20.292969 C 17.6875 20.289062 17.683594 20.285156 17.679688 20.28125 C 17.675781 20.277344 17.671875 20.277344 17.667969 20.273438 L 13.421875 16.023438 L 11.746094 14.351562 L 11.054688 13.65625 L 10.5625 13.164062 C 10.25 12.851562 10.070312 12.425781 10.070312 11.980469 C 10.070312 11.539062 10.25 11.113281 10.5625 10.796875 L 11.054688 10.308594 L 11.746094 9.613281 L 17.679688 3.679688 L 17.691406 3.671875 C 18.34375 3.027344 19.398438 3.03125 20.046875 3.679688 C 20.703125 4.335938 20.703125 5.394531 20.046875 6.046875 L 15.800781 10.296875 C 15.796875 10.300781 15.800781 10.308594 15.804688 10.308594 L 21.8125 10.308594 C 22.707031 10.308594 23.4375 11.011719 23.484375 11.894531 "/></clipPath></defs><g id="607d3bd2da"><g clip-rule="nonzero" clip-path="url(#fdde2478d8)"><g clip-rule="nonzero" clip-path="url(#e911251902)"><path style=" stroke:none;fill-rule:nonzero;fill:#191825;fill-opacity:1;" d="M 0 10.308594 L 6.722656 10.308594 L 6.722656 13.65625 L 0 13.65625 Z M 0 10.308594 "/></g></g><g clip-rule="nonzero" clip-path="url(#74172ef6bf)"><g clip-rule="nonzero" clip-path="url(#126e595496)"><path style=" stroke:none;fill-rule:nonzero;fill:#9aadf6;fill-opacity:1;" d="M 2.792969 3.027344 L 6.722656 3.027344 L 6.722656 9.324219 L 2.792969 9.324219 Z M 2.792969 3.027344 "/></g></g><g clip-rule="nonzero" clip-path="url(#bd56ecf04b)"><g clip-rule="nonzero" clip-path="url(#127b8670d1)"><path style=" stroke:none;fill-rule:nonzero;fill:#fae16e;fill-opacity:1;" d="M 2.792969 14.636719 L 6.722656 14.636719 L 6.722656 20.933594 L 2.792969 20.933594 Z M 2.792969 14.636719 "/></g></g><g clip-rule="nonzero" clip-path="url(#0374272700)"><g clip-rule="nonzero" clip-path="url(#e018d62bdf)"><path style=" stroke:none;fill-rule:nonzero;fill:#f2adda;fill-opacity:1;" d="M 9.835938 0 L 23.769531 0 L 23.769531 23.96875 L 9.835938 23.96875 Z M 9.835938 0 "/></g></g><g clip-rule="nonzero" clip-path="url(#455801c0f1)"><g clip-rule="nonzero" clip-path="url(#b210bd1538)"><path style=" stroke:none;fill-rule:nonzero;fill:#b0d4d2;fill-opacity:1;" d="M 9.835938 0 L 23.769531 0 L 23.769531 23.96875 L 9.835938 23.96875 Z M 9.835938 0 "/></g></g><g clip-rule="nonzero" clip-path="url(#9819a63b6b)"><g clip-rule="nonzero" clip-path="url(#5cfa53dc74)"><path style=" stroke:none;fill-rule:nonzero;fill:#191825;fill-opacity:1;" d="M 9.835938 0 L 23.769531 0 L 23.769531 23.96875 L 9.835938 23.96875 Z M 9.835938 0 "/></g></g></g></svg>