<svg xmlns="http://www.w3.org/2000/svg" xmlns:xlink="http://www.w3.org/1999/xlink" width="179" zoomAndPan="magnify" viewBox="0 0 134.25 135.000003" height="180" preserveAspectRatio="xMidYMid meet" version="1.2"><defs><clipPath id="23d1f66552"><path d="M 0.121094 57.625 L 37.714844 57.625 L 37.714844 76.421875 L 0.121094 76.421875 Z M 0.121094 57.625 "/></clipPath><clipPath id="4282c2a18b"><path d="M 37.707031 66.988281 C 37.707031 72.15625 33.519531 76.347656 28.347656 76.347656 L 9.640625 76.347656 C 4.476562 76.347656 0.199219 72.21875 0.160156 67.058594 C 0.121094 61.855469 4.328125 57.625 9.519531 57.625 L 28.347656 57.625 C 33.515625 57.625 37.707031 61.816406 37.707031 66.988281 "/></clipPath><clipPath id="2b36ecd63f"><path d="M 16.585938 17.777344 L 37.707031 17.777344 L 37.707031 52.207031 L 16.585938 52.207031 Z M 16.585938 17.777344 "/></clipPath><clipPath id="d789e90652"><path d="M 37.707031 32.851562 L 37.707031 52.140625 L 19.382812 33.816406 C 15.726562 30.160156 15.726562 24.234375 19.382812 20.574219 C 23.035156 16.917969 28.964844 16.917969 32.621094 20.574219 C 35.875 23.828125 37.707031 28.246094 37.707031 32.851562 "/></clipPath><clipPath id="913367cd14"><path d="M 16.585938 81.832031 L 37.707031 81.832031 L 37.707031 116.175781 L 16.585938 116.175781 Z M 16.585938 81.832031 "/></clipPath><clipPath id="2a0aa3a87e"><path d="M 37.707031 81.832031 L 37.707031 101.117188 C 37.707031 105.722656 35.875 110.140625 32.621094 113.394531 C 28.964844 117.050781 23.042969 117.050781 19.382812 113.394531 C 15.722656 109.738281 15.726562 103.8125 19.382812 100.15625 Z M 37.707031 81.832031 "/></clipPath><clipPath id="be581d6357"><path d="M 56.429688 1.3125 L 75.3125 1.3125 L 75.3125 36.714844 L 56.429688 36.714844 Z M 56.429688 1.3125 "/></clipPath><clipPath id="f8a1465fd5"><path d="M 75.15625 10.832031 C 75.15625 15.359375 73.355469 19.703125 70.152344 22.90625 L 56.429688 36.628906 L 56.429688 10.710938 C 56.429688 5.519531 60.664062 1.3125 65.867188 1.351562 C 71.027344 1.390625 75.15625 5.671875 75.15625 10.832031 "/></clipPath><clipPath id="a981e6f465"><path d="M 56.429688 97.296875 L 75.3125 97.296875 L 75.3125 132.699219 L 56.429688 132.699219 Z M 56.429688 97.296875 "/></clipPath><clipPath id="14630a9699"><path d="M 70.070312 110.976562 C 73.328125 114.234375 75.15625 118.652344 75.15625 123.257812 C 75.15625 128.070312 71.519531 132.035156 66.847656 132.558594 C 66.847656 132.558594 66.84375 132.5625 66.84375 132.558594 C 66.492188 132.5625 66.140625 132.566406 65.792969 132.566406 C 65.445312 132.566406 65.09375 132.5625 64.742188 132.558594 C 64.738281 132.5625 64.738281 132.558594 64.738281 132.558594 C 60.0625 132.035156 56.429688 128.070312 56.429688 123.257812 L 56.429688 97.339844 Z M 70.070312 110.976562 "/></clipPath><clipPath id="51bab3d378"><path d="M 56.429688 17.832031 L 131.433594 17.832031 L 131.433594 116.175781 L 56.429688 116.175781 Z M 56.429688 17.832031 "/></clipPath><clipPath id="50bebd159d"><path d="M 131.414062 66.492188 C 131.695312 71.875 127.292969 76.347656 121.902344 76.347656 L 88.476562 76.347656 C 88.445312 76.347656 88.429688 76.382812 88.453125 76.40625 L 112.207031 100.15625 C 115.859375 103.8125 115.859375 109.738281 112.203125 113.394531 C 108.566406 117.03125 102.679688 117.054688 99.023438 113.453125 C 99 113.433594 98.980469 113.417969 98.964844 113.394531 L 98.960938 113.394531 C 98.941406 113.375 98.921875 113.355469 98.902344 113.339844 L 75.15625 89.585938 L 65.796875 80.226562 L 65.792969 80.226562 L 61.917969 76.347656 L 61.914062 76.347656 L 59.171875 73.605469 C 57.417969 71.847656 56.429688 69.46875 56.429688 66.984375 C 56.429688 64.5 57.417969 62.125 59.171875 60.367188 L 75.15625 44.382812 L 98.910156 20.632812 L 99.023438 20.519531 C 102.683594 16.921875 108.566406 16.941406 112.207031 20.578125 C 115.863281 24.234375 115.863281 30.164062 112.207031 33.816406 L 88.453125 57.570312 C 88.433594 57.59375 88.449219 57.628906 88.476562 57.628906 L 122.066406 57.628906 C 127.070312 57.628906 131.15625 61.554688 131.414062 66.496094 "/></clipPath></defs><g id="77f73c5b24"><g clip-rule="nonzero" clip-path="url(#23d1f66552)"><g clip-rule="nonzero" clip-path="url(#4282c2a18b)"><path style=" stroke:none;fill-rule:nonzero;fill:#191825;fill-opacity:1;" d="M 0.121094 57.625 L 37.714844 57.625 L 37.714844 76.347656 L 0.121094 76.347656 Z M 0.121094 57.625 "/></g></g><g clip-rule="nonzero" clip-path="url(#2b36ecd63f)"><g clip-rule="nonzero" clip-path="url(#d789e90652)"><path style=" stroke:none;fill-rule:nonzero;fill:#9aadf6;fill-opacity:1;" d="M 15.726562 16.917969 L 37.707031 16.917969 L 37.707031 52.121094 L 15.726562 52.121094 Z M 15.726562 16.917969 "/></g></g><g clip-rule="nonzero" clip-path="url(#913367cd14)"><g clip-rule="nonzero" clip-path="url(#2a0aa3a87e)"><path style=" stroke:none;fill-rule:nonzero;fill:#fae16e;fill-opacity:1;" d="M 15.726562 81.832031 L 37.707031 81.832031 L 37.707031 117.035156 L 15.726562 117.035156 Z M 15.726562 81.832031 "/></g></g><g clip-rule="nonzero" clip-path="url(#be581d6357)"><g clip-rule="nonzero" clip-path="url(#f8a1465fd5)"><path style=" stroke:none;fill-rule:nonzero;fill:#f2adda;fill-opacity:1;" d="M 55.117188 0 L 133.007812 0 L 133.007812 134.011719 L 55.117188 134.011719 Z M 55.117188 0 "/></g></g><g clip-rule="nonzero" clip-path="url(#a981e6f465)"><g clip-rule="nonzero" clip-path="url(#14630a9699)"><path style=" stroke:none;fill-rule:nonzero;fill:#b0d4d2;fill-opacity:1;" d="M 55.117188 0 L 133.007812 0 L 133.007812 134.011719 L 55.117188 134.011719 Z M 55.117188 0 "/></g></g><g clip-rule="nonzero" clip-path="url(#51bab3d378)"><g clip-rule="nonzero" clip-path="url(#50bebd159d)"><path style=" stroke:none;fill-rule:nonzero;fill:#191825;fill-opacity:1;" d="M 55.117188 0 L 133.007812 0 L 133.007812 134.011719 L 55.117188 134.011719 Z M 55.117188 0 "/></g></g></g></svg>