<svg xmlns="http://www.w3.org/2000/svg" xmlns:xlink="http://www.w3.org/1999/xlink" width="500" zoomAndPan="magnify" viewBox="0 0 375 374.999991" height="500" preserveAspectRatio="xMidYMid meet" version="1.2"><defs><clipPath id="26bc2281c9"><path d="M 52.925781 132.117188 L 321.429688 132.117188 L 321.429688 245.171875 L 52.925781 245.171875 Z M 52.925781 132.117188 "/></clipPath><clipPath id="d9e3d0029d"><path d="M 70.175781 132.117188 L 304.015625 132.117188 C 308.589844 132.117188 312.976562 133.933594 316.210938 137.167969 C 319.449219 140.40625 321.265625 144.792969 321.265625 149.367188 L 321.265625 227.921875 C 321.265625 232.496094 319.449219 236.882812 316.210938 240.117188 C 312.976562 243.351562 308.589844 245.171875 304.015625 245.171875 L 70.175781 245.171875 C 65.601562 245.171875 61.214844 243.351562 57.980469 240.117188 C 54.742188 236.882812 52.925781 232.496094 52.925781 227.921875 L 52.925781 149.367188 C 52.925781 144.792969 54.742188 140.40625 57.980469 137.167969 C 61.214844 133.933594 65.601562 132.117188 70.175781 132.117188 Z M 70.175781 132.117188 "/></clipPath><clipPath id="f4f07a3bfe"><path d="M 52.929688 132.117188 L 321.425781 132.117188 L 321.425781 245.367188 L 52.929688 245.367188 Z M 52.929688 132.117188 "/></clipPath><clipPath id="d43ab06937"><path d="M 70.179688 132.117188 L 304.011719 132.117188 C 308.585938 132.117188 312.972656 133.933594 316.207031 137.167969 C 319.441406 140.402344 321.261719 144.792969 321.261719 149.367188 L 321.261719 227.917969 C 321.261719 232.492188 319.441406 236.878906 316.207031 240.117188 C 312.972656 243.351562 308.585938 245.167969 304.011719 245.167969 L 70.179688 245.167969 C 65.601562 245.167969 61.214844 243.351562 57.980469 240.117188 C 54.746094 236.878906 52.929688 232.492188 52.929688 227.917969 L 52.929688 149.367188 C 52.929688 144.792969 54.746094 140.402344 57.980469 137.167969 C 61.214844 133.933594 65.601562 132.117188 70.179688 132.117188 Z M 70.179688 132.117188 "/></clipPath><linearGradient x1="-0.00000216488" gradientTransform="matrix(2.343687,0,0,2.343687,0.00000507379,0.000000406503)" y1="32.158001" x2="152.655137" gradientUnits="userSpaceOnUse" y2="32.158001" id="99f7f86072"><stop style="stop-color:#9aadf9;stop-opacity:1;" offset="0"/><stop style="stop-color:#9aadf9;stop-opacity:1;" offset="0.0078125"/><stop style="stop-color:#9baef8;stop-opacity:1;" offset="0.015625"/><stop style="stop-color:#9baef7;stop-opacity:1;" offset="0.0234375"/><stop style="stop-color:#9baff7;stop-opacity:1;" offset="0.03125"/><stop style="stop-color:#9cb0f6;stop-opacity:1;" offset="0.0390625"/><stop style="stop-color:#9cb0f6;stop-opacity:1;" offset="0.046875"/><stop style="stop-color:#9cb1f5;stop-opacity:1;" offset="0.0546875"/><stop style="stop-color:#9db1f4;stop-opacity:1;" offset="0.0625"/><stop style="stop-color:#9db2f4;stop-opacity:1;" offset="0.0703125"/><stop style="stop-color:#9db3f3;stop-opacity:1;" offset="0.078125"/><stop style="stop-color:#9eb3f3;stop-opacity:1;" offset="0.0859375"/><stop style="stop-color:#9eb4f2;stop-opacity:1;" offset="0.09375"/><stop style="stop-color:#9eb5f1;stop-opacity:1;" offset="0.101562"/><stop style="stop-color:#9fb5f1;stop-opacity:1;" offset="0.109375"/><stop style="stop-color:#9fb6f0;stop-opacity:1;" offset="0.117187"/><stop style="stop-color:#9fb6ef;stop-opacity:1;" offset="0.125"/><stop style="stop-color:#a0b7ef;stop-opacity:1;" offset="0.132812"/><stop style="stop-color:#a0b8ee;stop-opacity:1;" offset="0.140625"/><stop style="stop-color:#a0b8ee;stop-opacity:1;" offset="0.148437"/><stop style="stop-color:#a1b9ed;stop-opacity:1;" offset="0.15625"/><stop style="stop-color:#a1b9ec;stop-opacity:1;" offset="0.164062"/><stop style="stop-color:#a1baec;stop-opacity:1;" offset="0.171875"/><stop style="stop-color:#a2bbeb;stop-opacity:1;" offset="0.179687"/><stop style="stop-color:#a2bbeb;stop-opacity:1;" offset="0.1875"/><stop style="stop-color:#a2bcea;stop-opacity:1;" offset="0.195312"/><stop style="stop-color:#a3bce9;stop-opacity:1;" offset="0.203125"/><stop style="stop-color:#a3bde9;stop-opacity:1;" offset="0.210937"/><stop style="stop-color:#a3bee8;stop-opacity:1;" offset="0.21875"/><stop style="stop-color:#a4bee8;stop-opacity:1;" offset="0.226562"/><stop style="stop-color:#a4bfe7;stop-opacity:1;" offset="0.234375"/><stop style="stop-color:#a4bfe6;stop-opacity:1;" offset="0.242187"/><stop style="stop-color:#a5c0e6;stop-opacity:1;" offset="0.25"/><stop style="stop-color:#a5c1e5;stop-opacity:1;" offset="0.257812"/><stop style="stop-color:#a5c1e5;stop-opacity:1;" offset="0.265625"/><stop style="stop-color:#a6c2e4;stop-opacity:1;" offset="0.273437"/><stop style="stop-color:#a6c3e3;stop-opacity:1;" offset="0.28125"/><stop style="stop-color:#a7c3e3;stop-opacity:1;" offset="0.289062"/><stop style="stop-color:#a7c4e2;stop-opacity:1;" offset="0.296875"/><stop style="stop-color:#a7c4e2;stop-opacity:1;" offset="0.304687"/><stop style="stop-color:#a8c5e1;stop-opacity:1;" offset="0.3125"/><stop style="stop-color:#a8c6e0;stop-opacity:1;" offset="0.320312"/><stop style="stop-color:#a8c6e0;stop-opacity:1;" offset="0.328125"/><stop style="stop-color:#a9c7df;stop-opacity:1;" offset="0.335938"/><stop style="stop-color:#a9c7df;stop-opacity:1;" offset="0.34375"/><stop style="stop-color:#a9c8de;stop-opacity:1;" offset="0.351562"/><stop style="stop-color:#aac9dd;stop-opacity:1;" offset="0.359375"/><stop style="stop-color:#aac9dd;stop-opacity:1;" offset="0.367187"/><stop style="stop-color:#aacadc;stop-opacity:1;" offset="0.375"/><stop style="stop-color:#abcadc;stop-opacity:1;" offset="0.382812"/><stop style="stop-color:#abcbdb;stop-opacity:1;" offset="0.390625"/><stop style="stop-color:#abccda;stop-opacity:1;" offset="0.398437"/><stop style="stop-color:#acccda;stop-opacity:1;" offset="0.40625"/><stop style="stop-color:#accdd9;stop-opacity:1;" offset="0.414062"/><stop style="stop-color:#acced8;stop-opacity:1;" offset="0.421875"/><stop style="stop-color:#adced8;stop-opacity:1;" offset="0.429688"/><stop style="stop-color:#adcfd7;stop-opacity:1;" offset="0.4375"/><stop style="stop-color:#adcfd7;stop-opacity:1;" offset="0.445312"/><stop style="stop-color:#aed0d6;stop-opacity:1;" offset="0.453125"/><stop style="stop-color:#aed1d5;stop-opacity:1;" offset="0.460937"/><stop style="stop-color:#aed1d5;stop-opacity:1;" offset="0.46875"/><stop style="stop-color:#afd2d4;stop-opacity:1;" offset="0.476562"/><stop style="stop-color:#afd2d4;stop-opacity:1;" offset="0.484375"/><stop style="stop-color:#afd3d3;stop-opacity:1;" offset="0.492187"/><stop style="stop-color:#b0d4d2;stop-opacity:1;" offset="0.5"/><stop style="stop-color:#b0d4d2;stop-opacity:1;" offset="0.503906"/><stop style="stop-color:#b1d3d2;stop-opacity:1;" offset="0.507812"/><stop style="stop-color:#b1d3d2;stop-opacity:1;" offset="0.511719"/><stop style="stop-color:#b2d3d2;stop-opacity:1;" offset="0.515625"/><stop style="stop-color:#b3d2d2;stop-opacity:1;" offset="0.519531"/><stop style="stop-color:#b3d2d2;stop-opacity:1;" offset="0.523437"/><stop style="stop-color:#b4d2d3;stop-opacity:1;" offset="0.527344"/><stop style="stop-color:#b4d1d3;stop-opacity:1;" offset="0.53125"/><stop style="stop-color:#b5d1d3;stop-opacity:1;" offset="0.535156"/><stop style="stop-color:#b5d1d3;stop-opacity:1;" offset="0.539062"/><stop style="stop-color:#b6d1d3;stop-opacity:1;" offset="0.542969"/><stop style="stop-color:#b6d0d3;stop-opacity:1;" offset="0.546875"/><stop style="stop-color:#b7d0d3;stop-opacity:1;" offset="0.550781"/><stop style="stop-color:#b7d0d3;stop-opacity:1;" offset="0.554688"/><stop style="stop-color:#b8cfd3;stop-opacity:1;" offset="0.558594"/><stop style="stop-color:#b8cfd3;stop-opacity:1;" offset="0.5625"/><stop style="stop-color:#b9cfd3;stop-opacity:1;" offset="0.566406"/><stop style="stop-color:#b9ced3;stop-opacity:1;" offset="0.570312"/><stop style="stop-color:#baced3;stop-opacity:1;" offset="0.574219"/><stop style="stop-color:#baced3;stop-opacity:1;" offset="0.578125"/><stop style="stop-color:#bbced3;stop-opacity:1;" offset="0.582031"/><stop style="stop-color:#bbcdd3;stop-opacity:1;" offset="0.585938"/><stop style="stop-color:#bccdd4;stop-opacity:1;" offset="0.589844"/><stop style="stop-color:#bccdd4;stop-opacity:1;" offset="0.59375"/><stop style="stop-color:#bdccd4;stop-opacity:1;" offset="0.597656"/><stop style="stop-color:#bdccd4;stop-opacity:1;" offset="0.601562"/><stop style="stop-color:#beccd4;stop-opacity:1;" offset="0.605469"/><stop style="stop-color:#becbd4;stop-opacity:1;" offset="0.609375"/><stop style="stop-color:#bfcbd4;stop-opacity:1;" offset="0.613281"/><stop style="stop-color:#bfcbd4;stop-opacity:1;" offset="0.617188"/><stop style="stop-color:#c0cad4;stop-opacity:1;" offset="0.621094"/><stop style="stop-color:#c0cad4;stop-opacity:1;" offset="0.625"/><stop style="stop-color:#c1cad4;stop-opacity:1;" offset="0.628906"/><stop style="stop-color:#c1cad4;stop-opacity:1;" offset="0.632812"/><stop style="stop-color:#c2c9d4;stop-opacity:1;" offset="0.636719"/><stop style="stop-color:#c3c9d4;stop-opacity:1;" offset="0.640625"/><stop style="stop-color:#c3c9d4;stop-opacity:1;" offset="0.644531"/><stop style="stop-color:#c4c8d4;stop-opacity:1;" offset="0.648438"/><stop style="stop-color:#c4c8d5;stop-opacity:1;" offset="0.652344"/><stop style="stop-color:#c5c8d5;stop-opacity:1;" offset="0.65625"/><stop style="stop-color:#c5c7d5;stop-opacity:1;" offset="0.660156"/><stop style="stop-color:#c6c7d5;stop-opacity:1;" offset="0.664063"/><stop style="stop-color:#c6c7d5;stop-opacity:1;" offset="0.667969"/><stop style="stop-color:#c7c6d5;stop-opacity:1;" offset="0.671875"/><stop style="stop-color:#c7c6d5;stop-opacity:1;" offset="0.675781"/><stop style="stop-color:#c8c6d5;stop-opacity:1;" offset="0.679688"/><stop style="stop-color:#c8c6d5;stop-opacity:1;" offset="0.683594"/><stop style="stop-color:#c9c5d5;stop-opacity:1;" offset="0.6875"/><stop style="stop-color:#c9c5d5;stop-opacity:1;" offset="0.691406"/><stop style="stop-color:#cac5d5;stop-opacity:1;" offset="0.695312"/><stop style="stop-color:#cac4d5;stop-opacity:1;" offset="0.699219"/><stop style="stop-color:#cbc4d5;stop-opacity:1;" offset="0.703125"/><stop style="stop-color:#cbc4d5;stop-opacity:1;" offset="0.707031"/><stop style="stop-color:#ccc3d5;stop-opacity:1;" offset="0.710937"/><stop style="stop-color:#ccc3d6;stop-opacity:1;" offset="0.714844"/><stop style="stop-color:#cdc3d6;stop-opacity:1;" offset="0.71875"/><stop style="stop-color:#cdc3d6;stop-opacity:1;" offset="0.722656"/><stop style="stop-color:#cec2d6;stop-opacity:1;" offset="0.726562"/><stop style="stop-color:#cec2d6;stop-opacity:1;" offset="0.730469"/><stop style="stop-color:#cfc2d6;stop-opacity:1;" offset="0.734375"/><stop style="stop-color:#cfc1d6;stop-opacity:1;" offset="0.738281"/><stop style="stop-color:#d0c1d6;stop-opacity:1;" offset="0.742187"/><stop style="stop-color:#d0c1d6;stop-opacity:1;" offset="0.746094"/><stop style="stop-color:#d1c0d6;stop-opacity:1;" offset="0.75"/><stop style="stop-color:#d1c0d6;stop-opacity:1;" offset="0.753906"/><stop style="stop-color:#d2c0d6;stop-opacity:1;" offset="0.757812"/><stop style="stop-color:#d3bfd6;stop-opacity:1;" offset="0.761719"/><stop style="stop-color:#d3bfd6;stop-opacity:1;" offset="0.765625"/><stop style="stop-color:#d4bfd6;stop-opacity:1;" offset="0.769531"/><stop style="stop-color:#d4bfd6;stop-opacity:1;" offset="0.773438"/><stop style="stop-color:#d5bed7;stop-opacity:1;" offset="0.777344"/><stop style="stop-color:#d5bed7;stop-opacity:1;" offset="0.78125"/><stop style="stop-color:#d6bed7;stop-opacity:1;" offset="0.785156"/><stop style="stop-color:#d6bdd7;stop-opacity:1;" offset="0.789062"/><stop style="stop-color:#d7bdd7;stop-opacity:1;" offset="0.792969"/><stop style="stop-color:#d7bdd7;stop-opacity:1;" offset="0.796875"/><stop style="stop-color:#d8bcd7;stop-opacity:1;" offset="0.800781"/><stop style="stop-color:#d8bcd7;stop-opacity:1;" offset="0.804688"/><stop style="stop-color:#d9bcd7;stop-opacity:1;" offset="0.808594"/><stop style="stop-color:#d9bcd7;stop-opacity:1;" offset="0.8125"/><stop style="stop-color:#dabbd7;stop-opacity:1;" offset="0.816406"/><stop style="stop-color:#dabbd7;stop-opacity:1;" offset="0.820312"/><stop style="stop-color:#dbbbd7;stop-opacity:1;" offset="0.824219"/><stop style="stop-color:#dbbad7;stop-opacity:1;" offset="0.828125"/><stop style="stop-color:#dcbad7;stop-opacity:1;" offset="0.832031"/><stop style="stop-color:#dcbad7;stop-opacity:1;" offset="0.835938"/><stop style="stop-color:#ddb9d7;stop-opacity:1;" offset="0.839844"/><stop style="stop-color:#ddb9d8;stop-opacity:1;" offset="0.84375"/><stop style="stop-color:#deb9d8;stop-opacity:1;" offset="0.847656"/><stop style="stop-color:#deb8d8;stop-opacity:1;" offset="0.851563"/><stop style="stop-color:#dfb8d8;stop-opacity:1;" offset="0.855469"/><stop style="stop-color:#dfb8d8;stop-opacity:1;" offset="0.859375"/><stop style="stop-color:#e0b8d8;stop-opacity:1;" offset="0.863281"/><stop style="stop-color:#e0b7d8;stop-opacity:1;" offset="0.867188"/><stop style="stop-color:#e1b7d8;stop-opacity:1;" offset="0.871094"/><stop style="stop-color:#e1b7d8;stop-opacity:1;" offset="0.875"/><stop style="stop-color:#e2b6d8;stop-opacity:1;" offset="0.878906"/><stop style="stop-color:#e3b6d8;stop-opacity:1;" offset="0.882812"/><stop style="stop-color:#e3b6d8;stop-opacity:1;" offset="0.886719"/><stop style="stop-color:#e4b5d8;stop-opacity:1;" offset="0.890625"/><stop style="stop-color:#e4b5d8;stop-opacity:1;" offset="0.894531"/><stop style="stop-color:#e5b5d8;stop-opacity:1;" offset="0.898437"/><stop style="stop-color:#e5b5d8;stop-opacity:1;" offset="0.902344"/><stop style="stop-color:#e6b4d9;stop-opacity:1;" offset="0.90625"/><stop style="stop-color:#e6b4d9;stop-opacity:1;" offset="0.910156"/><stop style="stop-color:#e7b4d9;stop-opacity:1;" offset="0.914062"/><stop style="stop-color:#e7b3d9;stop-opacity:1;" offset="0.917969"/><stop style="stop-color:#e8b3d9;stop-opacity:1;" offset="0.921875"/><stop style="stop-color:#e8b3d9;stop-opacity:1;" offset="0.925781"/><stop style="stop-color:#e9b2d9;stop-opacity:1;" offset="0.929687"/><stop style="stop-color:#e9b2d9;stop-opacity:1;" offset="0.933594"/><stop style="stop-color:#eab2d9;stop-opacity:1;" offset="0.9375"/><stop style="stop-color:#eab1d9;stop-opacity:1;" offset="0.941406"/><stop style="stop-color:#ebb1d9;stop-opacity:1;" offset="0.945312"/><stop style="stop-color:#ebb1d9;stop-opacity:1;" offset="0.949219"/><stop style="stop-color:#ecb1d9;stop-opacity:1;" offset="0.953125"/><stop style="stop-color:#ecb0d9;stop-opacity:1;" offset="0.957031"/><stop style="stop-color:#edb0d9;stop-opacity:1;" offset="0.960938"/><stop style="stop-color:#edb0d9;stop-opacity:1;" offset="0.964844"/><stop style="stop-color:#eeafda;stop-opacity:1;" offset="0.96875"/><stop style="stop-color:#eeafda;stop-opacity:1;" offset="0.972656"/><stop style="stop-color:#efafda;stop-opacity:1;" offset="0.976562"/><stop style="stop-color:#efaeda;stop-opacity:1;" offset="0.980469"/><stop style="stop-color:#f0aeda;stop-opacity:1;" offset="0.984375"/><stop style="stop-color:#f0aeda;stop-opacity:1;" offset="0.988281"/><stop style="stop-color:#f1adda;stop-opacity:1;" offset="0.992188"/><stop style="stop-color:#f1adda;stop-opacity:1;" offset="0.996094"/><stop style="stop-color:#f2adda;stop-opacity:1;" offset="1"/></linearGradient><clipPath id="51dcd8a68c"><path d="M 78.03125 181.621094 L 101.753906 181.621094 L 101.753906 193.484375 L 78.03125 193.484375 Z M 78.03125 181.621094 "/></clipPath><clipPath id="c79b868785"><path d="M 101.75 187.527344 C 101.75 190.792969 99.105469 193.4375 95.84375 193.4375 L 84.039062 193.4375 C 80.777344 193.4375 78.078125 190.832031 78.054688 187.574219 C 78.03125 184.289062 80.683594 181.621094 83.960938 181.621094 L 95.84375 181.621094 C 99.105469 181.621094 101.75 184.265625 101.75 187.527344 "/></clipPath><clipPath id="02c70e52a4"><path d="M 88.421875 156.476562 L 101.75 156.476562 L 101.75 178.203125 L 88.421875 178.203125 Z M 88.421875 156.476562 "/></clipPath><clipPath id="804ebe99e3"><path d="M 101.75 165.988281 L 101.75 178.160156 L 90.183594 166.597656 C 87.878906 164.289062 87.878906 160.550781 90.183594 158.242188 C 92.492188 155.933594 96.234375 155.933594 98.539062 158.238281 C 100.59375 160.292969 101.75 163.082031 101.75 165.988281 "/></clipPath><clipPath id="ae5131ae1e"><path d="M 88.421875 196.898438 L 101.75 196.898438 L 101.75 218.570312 L 88.421875 218.570312 Z M 88.421875 196.898438 "/></clipPath><clipPath id="f42b85976a"><path d="M 101.75 196.898438 L 101.75 209.066406 C 101.75 211.972656 100.59375 214.761719 98.539062 216.816406 C 96.234375 219.121094 92.496094 219.121094 90.183594 216.816406 C 87.875 214.507812 87.878906 210.769531 90.183594 208.460938 Z M 101.75 196.898438 "/></clipPath><clipPath id="66e809020a"><path d="M 113.5625 146.085938 L 125.480469 146.085938 L 125.480469 168.425781 L 113.5625 168.425781 Z M 113.5625 146.085938 "/></clipPath><clipPath id="d001a9c389"><path d="M 125.382812 152.09375 C 125.382812 154.949219 124.246094 157.691406 122.226562 159.710938 L 113.566406 168.371094 L 113.566406 152.015625 C 113.566406 148.738281 116.234375 146.085938 119.519531 146.109375 C 122.777344 146.136719 125.382812 148.835938 125.382812 152.09375 "/></clipPath><clipPath id="459ad7a647"><path d="M 113.5625 206.65625 L 125.480469 206.65625 L 125.480469 228.996094 L 113.5625 228.996094 Z M 113.5625 206.65625 "/></clipPath><clipPath id="292e71114f"><path d="M 122.171875 215.289062 C 124.226562 217.34375 125.382812 220.132812 125.382812 223.039062 C 125.382812 226.074219 123.089844 228.578125 120.140625 228.910156 C 120.140625 228.910156 120.136719 228.910156 120.136719 228.910156 C 119.914062 228.914062 119.695312 228.914062 119.472656 228.914062 C 119.253906 228.914062 119.03125 228.914062 118.808594 228.910156 C 115.859375 228.578125 113.566406 226.078125 113.566406 223.039062 L 113.566406 206.683594 Z M 122.171875 215.289062 "/></clipPath><clipPath id="37f5865c0d"><path d="M 113.5625 156.511719 L 160.894531 156.511719 L 160.894531 218.570312 L 113.5625 218.570312 Z M 113.5625 156.511719 "/></clipPath><clipPath id="304b5c3185"><path d="M 160.882812 187.21875 C 161.0625 190.613281 158.285156 193.4375 154.882812 193.4375 L 133.789062 193.4375 C 133.769531 193.4375 133.757812 193.460938 133.773438 193.472656 L 148.761719 208.460938 C 151.070312 210.769531 151.070312 214.507812 148.761719 216.816406 C 146.464844 219.109375 142.753906 219.125 140.441406 216.851562 C 140.429688 216.839844 140.417969 216.828125 140.40625 216.816406 C 140.390625 216.804688 140.378906 216.792969 140.367188 216.78125 L 125.382812 201.792969 L 125.382812 201.789062 L 119.476562 195.882812 L 119.472656 195.882812 L 117.027344 193.4375 L 115.292969 191.707031 C 114.1875 190.597656 113.566406 189.097656 113.566406 187.527344 C 113.566406 185.960938 114.1875 184.460938 115.292969 183.351562 L 117.027344 181.621094 L 119.472656 179.171875 L 125.382812 173.265625 L 140.40625 158.242188 L 140.445312 158.207031 C 142.753906 155.933594 146.464844 155.949219 148.761719 158.242188 C 151.070312 160.550781 151.070312 164.292969 148.765625 166.597656 L 133.773438 181.585938 C 133.761719 181.601562 133.769531 181.625 133.789062 181.625 L 154.984375 181.625 C 158.144531 181.625 160.722656 184.101562 160.882812 187.21875 "/></clipPath><clipPath id="4f929c2697"><path d="M 171.328125 165.355469 L 181.828125 165.355469 L 181.828125 178.105469 L 171.328125 178.105469 Z M 171.328125 165.355469 "/></clipPath></defs><g id="5b063c0d5d"><g clip-rule="nonzero" clip-path="url(#26bc2281c9)"><g clip-rule="nonzero" clip-path="url(#d9e3d0029d)"><path style=" stroke:none;fill-rule:nonzero;fill:#ffffff;fill-opacity:1;" d="M 52.925781 132.117188 L 321.429688 132.117188 L 321.429688 245.171875 L 52.925781 245.171875 Z M 52.925781 132.117188 "/></g></g><g clip-rule="nonzero" clip-path="url(#f4f07a3bfe)"><g clip-rule="nonzero" clip-path="url(#d43ab06937)"><path style="fill:none;stroke-width:20;stroke-linecap:butt;stroke-linejoin:miter;stroke:url(#99f7f86072);stroke-miterlimit:4;" d="M 22.996779 0.000187968 L 334.778069 0.000187968 C 340.877028 0.000187968 346.725987 2.422063 351.038488 6.734564 C 355.350989 11.047064 357.778072 16.901232 357.778072 23.000191 L 357.778072 127.73458 C 357.778072 133.833539 355.350989 139.682498 351.038488 144.000207 C 346.725987 148.312707 340.877028 150.734583 334.778069 150.734583 L 22.996779 150.734583 C 16.89782 150.734583 11.048861 148.312707 6.73636 144.000207 C 2.423859 139.682498 0.0019841 133.833539 0.0019841 127.73458 L 0.0019841 23.000191 C 0.0019841 16.901232 2.423859 11.047064 6.73636 6.734564 C 11.048861 2.422063 16.89782 0.000187968 22.996779 0.000187968 Z M 22.996779 0.000187968 " transform="matrix(0.75,0,0,0.75,52.928199,132.117047)"/></g></g><g clip-rule="nonzero" clip-path="url(#51dcd8a68c)"><g clip-rule="nonzero" clip-path="url(#c79b868785)"><path style=" stroke:none;fill-rule:nonzero;fill:#191825;fill-opacity:1;" d="M 78.03125 181.621094 L 101.753906 181.621094 L 101.753906 193.4375 L 78.03125 193.4375 Z M 78.03125 181.621094 "/></g></g><g clip-rule="nonzero" clip-path="url(#02c70e52a4)"><g clip-rule="nonzero" clip-path="url(#804ebe99e3)"><path style=" stroke:none;fill-rule:nonzero;fill:#9aadf6;fill-opacity:1;" d="M 87.878906 155.933594 L 101.75 155.933594 L 101.75 178.148438 L 87.878906 178.148438 Z M 87.878906 155.933594 "/></g></g><g clip-rule="nonzero" clip-path="url(#ae5131ae1e)"><g clip-rule="nonzero" clip-path="url(#f42b85976a)"><path style=" stroke:none;fill-rule:nonzero;fill:#fae16e;fill-opacity:1;" d="M 87.878906 196.898438 L 101.75 196.898438 L 101.75 219.113281 L 87.878906 219.113281 Z M 87.878906 196.898438 "/></g></g><g clip-rule="nonzero" clip-path="url(#66e809020a)"><g clip-rule="nonzero" clip-path="url(#d001a9c389)"><path style=" stroke:none;fill-rule:nonzero;fill:#f2adda;fill-opacity:1;" d="M 112.738281 145.257812 L 161.890625 145.257812 L 161.890625 229.824219 L 112.738281 229.824219 Z M 112.738281 145.257812 "/></g></g><g clip-rule="nonzero" clip-path="url(#459ad7a647)"><g clip-rule="nonzero" clip-path="url(#292e71114f)"><path style=" stroke:none;fill-rule:nonzero;fill:#b0d4d2;fill-opacity:1;" d="M 112.738281 145.257812 L 161.890625 145.257812 L 161.890625 229.824219 L 112.738281 229.824219 Z M 112.738281 145.257812 "/></g></g><g clip-rule="nonzero" clip-path="url(#37f5865c0d)"><g clip-rule="nonzero" clip-path="url(#304b5c3185)"><path style=" stroke:none;fill-rule:nonzero;fill:#191825;fill-opacity:1;" d="M 112.738281 145.257812 L 161.890625 145.257812 L 161.890625 229.824219 L 112.738281 229.824219 Z M 112.738281 145.257812 "/></g></g><g clip-rule="nonzero" clip-path="url(#4f929c2697)"><path style=" stroke:none;fill-rule:nonzero;fill:#000000;fill-opacity:1;" d="M 181.492188 169.703125 C 181.417969 169.757812 180.097656 170.496094 180.097656 172.128906 C 180.097656 174.023438 181.777344 174.691406 181.828125 174.707031 C 181.820312 174.75 181.5625 175.625 180.941406 176.519531 C 180.390625 177.304688 179.816406 178.085938 178.9375 178.085938 C 178.058594 178.085938 177.835938 177.582031 176.824219 177.582031 C 175.835938 177.582031 175.484375 178.105469 174.683594 178.105469 C 173.878906 178.105469 173.320312 177.378906 172.675781 176.484375 C 171.929688 175.4375 171.328125 173.808594 171.328125 172.261719 C 171.328125 169.785156 172.960938 168.46875 174.5625 168.46875 C 175.417969 168.46875 176.128906 169.023438 176.664062 169.023438 C 177.171875 169.023438 177.964844 168.4375 178.9375 168.4375 C 179.304688 168.4375 180.625 168.46875 181.492188 169.703125 Z M 178.476562 167.386719 C 178.875 166.917969 179.160156 166.265625 179.160156 165.613281 C 179.160156 165.519531 179.152344 165.429688 179.136719 165.355469 C 178.484375 165.378906 177.707031 165.785156 177.238281 166.320312 C 176.871094 166.734375 176.527344 167.386719 176.527344 168.050781 C 176.527344 168.148438 176.546875 168.25 176.554688 168.28125 C 176.59375 168.289062 176.660156 168.296875 176.726562 168.296875 C 177.3125 168.296875 178.050781 167.910156 178.476562 167.386719 Z M 178.476562 167.386719 "/></g><g style="fill:#191825;fill-opacity:1;"><g transform="translate(169.264652, 204.779123)"><path style="stroke:none" d="M 6.578125 -35.46875 C 7.796875 -35.46875 8.769531 -35.125 9.5 -34.4375 C 10.238281 -33.75 10.609375 -32.832031 10.609375 -31.6875 C 10.609375 -30.5 10.238281 -29.5625 9.5 -28.875 C 8.769531 -28.1875 7.796875 -27.84375 6.578125 -27.84375 C 5.390625 -27.84375 4.425781 -28.1875 3.6875 -28.875 C 2.957031 -29.5625 2.59375 -30.5 2.59375 -31.6875 C 2.59375 -32.832031 2.957031 -33.75 3.6875 -34.4375 C 4.425781 -35.125 5.390625 -35.46875 6.578125 -35.46875 Z M 10.375 0 L 2.828125 0 L 2.828125 -25.578125 L 10.375 -25.578125 Z M 10.375 0 "/></g></g><g style="fill:#191825;fill-opacity:1;"><g transform="translate(182.512629, 204.779123)"><path style="stroke:none" d="M 40.75 -33.125 L 40.75 0 L 33.21875 0 L 33.21875 -14.6875 C 33.21875 -16.289062 33.222656 -18.097656 33.234375 -20.109375 C 33.253906 -22.128906 33.28125 -23.988281 33.3125 -25.6875 C 32.988281 -23.988281 32.570312 -22.140625 32.0625 -20.140625 C 31.550781 -18.140625 31.054688 -16.335938 30.578125 -14.734375 L 26.40625 0 L 18.4375 0 L 14.15625 -14.734375 C 13.707031 -16.335938 13.234375 -18.128906 12.734375 -20.109375 C 12.242188 -22.097656 11.835938 -23.9375 11.515625 -25.625 C 11.578125 -23.9375 11.609375 -22.09375 11.609375 -20.09375 C 11.609375 -18.09375 11.609375 -16.289062 11.609375 -14.6875 L 11.609375 0 L 4.078125 0 L 4.078125 -33.125 L 15.890625 -33.125 L 22.5625 -7.15625 L 29.234375 -33.125 Z M 40.75 -33.125 "/></g></g><g style="fill:#191825;fill-opacity:1;"><g transform="translate(226.144554, 204.779123)"><path style="stroke:none" d="M 17.765625 0 L 17.234375 -3.75 L 16.078125 -1.015625 C 15.179688 -0.429688 14.195312 -0.00390625 13.125 0.265625 C 12.050781 0.535156 10.925781 0.671875 9.75 0.671875 C 8.300781 0.671875 6.953125 0.382812 5.703125 -0.1875 C 4.460938 -0.769531 3.457031 -1.617188 2.6875 -2.734375 C 1.914062 -3.859375 1.53125 -5.21875 1.53125 -6.8125 C 1.53125 -9.59375 2.726562 -11.757812 5.125 -13.3125 C 7.53125 -14.863281 10.988281 -15.640625 15.5 -15.640625 L 17.140625 -15.640625 L 17.140625 -16.078125 C 17.140625 -16.429688 17.140625 -16.78125 17.140625 -17.125 C 17.140625 -17.476562 17.109375 -17.863281 17.046875 -18.28125 C 16.972656 -19.050781 16.640625 -19.707031 16.046875 -20.25 C 15.460938 -20.800781 14.609375 -21.078125 13.484375 -21.078125 C 12.304688 -21.078125 11.394531 -20.734375 10.75 -20.046875 C 10.113281 -19.359375 9.742188 -18.375 9.640625 -17.09375 L 2.453125 -17.09375 C 2.515625 -19.039062 3.046875 -20.691406 4.046875 -22.046875 C 5.054688 -23.410156 6.410156 -24.453125 8.109375 -25.171875 C 9.804688 -25.890625 11.695312 -26.25 13.78125 -26.25 C 16.300781 -26.25 18.320312 -25.910156 19.84375 -25.234375 C 21.363281 -24.566406 22.484375 -23.640625 23.203125 -22.453125 C 23.921875 -21.273438 24.347656 -19.921875 24.484375 -18.390625 C 24.578125 -17.203125 24.625 -15.820312 24.625 -14.25 L 24.625 -6.484375 C 24.625 -5.523438 24.65625 -4.554688 24.71875 -3.578125 C 24.78125 -2.597656 24.910156 -1.40625 25.109375 0 Z M 12.71875 -4.515625 C 13.84375 -4.515625 14.859375 -4.921875 15.765625 -5.734375 C 16.679688 -6.546875 17.140625 -7.738281 17.140625 -9.3125 L 17.140625 -11.1875 C 14.796875 -11.375 12.894531 -11.171875 11.4375 -10.578125 C 9.988281 -9.992188 9.265625 -8.945312 9.265625 -7.4375 C 9.265625 -6.476562 9.582031 -5.75 10.21875 -5.25 C 10.863281 -4.757812 11.695312 -4.515625 12.71875 -4.515625 Z M 12.71875 -4.515625 "/></g></g><g style="fill:#191825;fill-opacity:1;"><g transform="translate(253.648504, 204.779123)"><path style="stroke:none" d="M 16.9375 -26.25 C 17.351562 -26.25 17.707031 -26.234375 18 -26.203125 C 18.289062 -26.171875 18.578125 -26.125 18.859375 -26.0625 L 18.859375 -19.96875 C 15.890625 -20.15625 13.734375 -19.5625 12.390625 -18.1875 C 11.046875 -16.8125 10.375 -14.316406 10.375 -10.703125 L 10.375 0 L 2.828125 0 L 2.828125 -25.578125 L 10.375 -25.578125 L 10.375 -20.6875 L 12.28125 -24.234375 C 12.925781 -24.910156 13.679688 -25.414062 14.546875 -25.75 C 15.410156 -26.082031 16.207031 -26.25 16.9375 -26.25 Z M 16.9375 -26.25 "/></g></g><g style="fill:#191825;fill-opacity:1;"><g transform="translate(272.752468, 204.779123)"><path style="stroke:none" d="M 11.859375 -20.59375 L 11.859375 -9.84375 C 11.859375 -9.425781 11.859375 -9.007812 11.859375 -8.59375 C 11.859375 -8.175781 11.875 -7.789062 11.90625 -7.4375 C 12 -6.15625 12.359375 -5.320312 12.984375 -4.9375 C 13.609375 -4.5625 14.878906 -4.4375 16.796875 -4.5625 L 16.796875 0.234375 C 16.023438 0.367188 15.265625 0.46875 14.515625 0.53125 C 13.765625 0.59375 12.972656 0.625 12.140625 0.625 C 9.328125 0.625 7.375 0.160156 6.28125 -0.765625 C 5.195312 -1.691406 4.578125 -3.082031 4.421875 -4.9375 C 4.390625 -5.582031 4.363281 -6.21875 4.34375 -6.84375 C 4.320312 -7.46875 4.3125 -8.128906 4.3125 -8.828125 L 4.3125 -20.59375 L 0.4375 -20.59375 L 0.4375 -25.390625 L 4.3125 -25.390625 L 4.3125 -31.828125 L 11.859375 -31.828125 L 11.859375 -25.390625 L 17.28125 -25.390625 L 17.28125 -20.59375 Z M 11.859375 -20.59375 "/></g></g></g></svg>