<svg xmlns="http://www.w3.org/2000/svg" xmlns:xlink="http://www.w3.org/1999/xlink" width="462" zoomAndPan="magnify" viewBox="0 0 346.5 136.499996" height="182" preserveAspectRatio="xMidYMid meet" version="1.2"><defs><clipPath id="21ce3a3d1f"><path d="M 0.382812 11.5 L 344.46875 11.5 L 344.46875 124.140625 L 0.382812 124.140625 Z M 0.382812 11.5 "/></clipPath><clipPath id="c6b81e5eb7"><path d="M 17.570312 11.5 L 327.097656 11.5 C 331.65625 11.5 336.027344 13.3125 339.25 16.535156 C 342.476562 19.757812 344.285156 24.128906 344.285156 28.6875 L 344.285156 106.953125 C 344.285156 111.511719 342.476562 115.882812 339.25 119.109375 C 336.027344 122.332031 331.65625 124.140625 327.097656 124.140625 L 17.570312 124.140625 C 13.011719 124.140625 8.640625 122.332031 5.417969 119.109375 C 2.195312 115.882812 0.382812 111.511719 0.382812 106.953125 L 0.382812 28.6875 C 0.382812 24.128906 2.195312 19.757812 5.417969 16.535156 C 8.640625 13.3125 13.011719 11.5 17.570312 11.5 Z M 17.570312 11.5 "/></clipPath><clipPath id="94ba908742"><path d="M 0.382812 11.5 L 344.125 11.5 L 344.125 124.335938 L 0.382812 124.335938 Z M 0.382812 11.5 "/></clipPath><clipPath id="b0078a73cb"><path d="M 17.5625 11.5 L 326.945312 11.5 C 331.5 11.5 335.871094 13.308594 339.09375 16.53125 C 342.3125 19.753906 344.125 24.125 344.125 28.679688 L 344.125 106.910156 C 344.125 111.464844 342.3125 115.835938 339.09375 119.058594 C 335.871094 122.277344 331.5 124.089844 326.945312 124.089844 L 17.5625 124.089844 C 13.007812 124.089844 8.636719 122.277344 5.414062 119.058594 C 2.191406 115.835938 0.382812 111.464844 0.382812 106.910156 L 0.382812 28.679688 C 0.382812 24.125 2.191406 19.753906 5.414062 16.53125 C 8.636719 13.308594 13.007812 11.5 17.5625 11.5 Z M 17.5625 11.5 "/></clipPath><linearGradient x1="0" gradientTransform="matrix(2.343683,0,0,2.343683,0.000000000000000111,-0.00000304009)" y1="32.158001" x2="196.3589" gradientUnits="userSpaceOnUse" y2="32.158001" id="e0f6d619ce"><stop style="stop-color:#9aadf9;stop-opacity:1;" offset="0"/><stop style="stop-color:#9aadf9;stop-opacity:1;" offset="0.0078125"/><stop style="stop-color:#9baef8;stop-opacity:1;" offset="0.015625"/><stop style="stop-color:#9baef7;stop-opacity:1;" offset="0.0234375"/><stop style="stop-color:#9baff7;stop-opacity:1;" offset="0.03125"/><stop style="stop-color:#9cb0f6;stop-opacity:1;" offset="0.0390625"/><stop style="stop-color:#9cb0f6;stop-opacity:1;" offset="0.046875"/><stop style="stop-color:#9cb1f5;stop-opacity:1;" offset="0.0546875"/><stop style="stop-color:#9db1f4;stop-opacity:1;" offset="0.0625"/><stop style="stop-color:#9db2f4;stop-opacity:1;" offset="0.0703125"/><stop style="stop-color:#9db3f3;stop-opacity:1;" offset="0.078125"/><stop style="stop-color:#9eb3f3;stop-opacity:1;" offset="0.0859375"/><stop style="stop-color:#9eb4f2;stop-opacity:1;" offset="0.09375"/><stop style="stop-color:#9eb5f1;stop-opacity:1;" offset="0.101562"/><stop style="stop-color:#9fb5f1;stop-opacity:1;" offset="0.109375"/><stop style="stop-color:#9fb6f0;stop-opacity:1;" offset="0.117187"/><stop style="stop-color:#9fb6ef;stop-opacity:1;" offset="0.125"/><stop style="stop-color:#a0b7ef;stop-opacity:1;" offset="0.132812"/><stop style="stop-color:#a0b8ee;stop-opacity:1;" offset="0.140625"/><stop style="stop-color:#a0b8ee;stop-opacity:1;" offset="0.148438"/><stop style="stop-color:#a1b9ed;stop-opacity:1;" offset="0.15625"/><stop style="stop-color:#a1b9ec;stop-opacity:1;" offset="0.164062"/><stop style="stop-color:#a1baec;stop-opacity:1;" offset="0.171875"/><stop style="stop-color:#a2bbeb;stop-opacity:1;" offset="0.179688"/><stop style="stop-color:#a2bbeb;stop-opacity:1;" offset="0.1875"/><stop style="stop-color:#a2bcea;stop-opacity:1;" offset="0.195312"/><stop style="stop-color:#a3bce9;stop-opacity:1;" offset="0.203125"/><stop style="stop-color:#a3bde9;stop-opacity:1;" offset="0.210937"/><stop style="stop-color:#a3bee8;stop-opacity:1;" offset="0.21875"/><stop style="stop-color:#a4bee8;stop-opacity:1;" offset="0.226562"/><stop style="stop-color:#a4bfe7;stop-opacity:1;" offset="0.234375"/><stop style="stop-color:#a4bfe6;stop-opacity:1;" offset="0.242187"/><stop style="stop-color:#a5c0e6;stop-opacity:1;" offset="0.25"/><stop style="stop-color:#a5c1e5;stop-opacity:1;" offset="0.257812"/><stop style="stop-color:#a5c1e5;stop-opacity:1;" offset="0.265625"/><stop style="stop-color:#a6c2e4;stop-opacity:1;" offset="0.273438"/><stop style="stop-color:#a6c3e3;stop-opacity:1;" offset="0.28125"/><stop style="stop-color:#a7c3e3;stop-opacity:1;" offset="0.289062"/><stop style="stop-color:#a7c4e2;stop-opacity:1;" offset="0.296875"/><stop style="stop-color:#a7c4e2;stop-opacity:1;" offset="0.304688"/><stop style="stop-color:#a8c5e1;stop-opacity:1;" offset="0.3125"/><stop style="stop-color:#a8c6e0;stop-opacity:1;" offset="0.320312"/><stop style="stop-color:#a8c6e0;stop-opacity:1;" offset="0.328125"/><stop style="stop-color:#a9c7df;stop-opacity:1;" offset="0.335938"/><stop style="stop-color:#a9c7df;stop-opacity:1;" offset="0.34375"/><stop style="stop-color:#a9c8de;stop-opacity:1;" offset="0.351562"/><stop style="stop-color:#aac9dd;stop-opacity:1;" offset="0.359375"/><stop style="stop-color:#aac9dd;stop-opacity:1;" offset="0.367188"/><stop style="stop-color:#aacadc;stop-opacity:1;" offset="0.375"/><stop style="stop-color:#abcadc;stop-opacity:1;" offset="0.382812"/><stop style="stop-color:#abcbdb;stop-opacity:1;" offset="0.390625"/><stop style="stop-color:#abccda;stop-opacity:1;" offset="0.398438"/><stop style="stop-color:#acccda;stop-opacity:1;" offset="0.40625"/><stop style="stop-color:#accdd9;stop-opacity:1;" offset="0.414062"/><stop style="stop-color:#acced8;stop-opacity:1;" offset="0.421875"/><stop style="stop-color:#adced8;stop-opacity:1;" offset="0.429687"/><stop style="stop-color:#adcfd7;stop-opacity:1;" offset="0.4375"/><stop style="stop-color:#adcfd7;stop-opacity:1;" offset="0.445312"/><stop style="stop-color:#aed0d6;stop-opacity:1;" offset="0.453125"/><stop style="stop-color:#aed1d5;stop-opacity:1;" offset="0.460937"/><stop style="stop-color:#aed1d5;stop-opacity:1;" offset="0.46875"/><stop style="stop-color:#afd2d4;stop-opacity:1;" offset="0.476562"/><stop style="stop-color:#afd2d4;stop-opacity:1;" offset="0.484375"/><stop style="stop-color:#afd3d3;stop-opacity:1;" offset="0.492187"/><stop style="stop-color:#b0d4d2;stop-opacity:1;" offset="0.5"/><stop style="stop-color:#b0d4d2;stop-opacity:1;" offset="0.503906"/><stop style="stop-color:#b1d3d2;stop-opacity:1;" offset="0.507812"/><stop style="stop-color:#b1d3d2;stop-opacity:1;" offset="0.511719"/><stop style="stop-color:#b2d3d2;stop-opacity:1;" offset="0.515625"/><stop style="stop-color:#b3d2d2;stop-opacity:1;" offset="0.519531"/><stop style="stop-color:#b3d2d2;stop-opacity:1;" offset="0.523438"/><stop style="stop-color:#b4d2d3;stop-opacity:1;" offset="0.527344"/><stop style="stop-color:#b4d1d3;stop-opacity:1;" offset="0.53125"/><stop style="stop-color:#b5d1d3;stop-opacity:1;" offset="0.535156"/><stop style="stop-color:#b5d1d3;stop-opacity:1;" offset="0.539062"/><stop style="stop-color:#b6d1d3;stop-opacity:1;" offset="0.542969"/><stop style="stop-color:#b6d0d3;stop-opacity:1;" offset="0.546875"/><stop style="stop-color:#b7d0d3;stop-opacity:1;" offset="0.550781"/><stop style="stop-color:#b7d0d3;stop-opacity:1;" offset="0.554688"/><stop style="stop-color:#b8cfd3;stop-opacity:1;" offset="0.558594"/><stop style="stop-color:#b8cfd3;stop-opacity:1;" offset="0.5625"/><stop style="stop-color:#b9cfd3;stop-opacity:1;" offset="0.566406"/><stop style="stop-color:#b9ced3;stop-opacity:1;" offset="0.570312"/><stop style="stop-color:#baced3;stop-opacity:1;" offset="0.574219"/><stop style="stop-color:#baced3;stop-opacity:1;" offset="0.578125"/><stop style="stop-color:#bbced3;stop-opacity:1;" offset="0.582031"/><stop style="stop-color:#bbcdd3;stop-opacity:1;" offset="0.585938"/><stop style="stop-color:#bccdd4;stop-opacity:1;" offset="0.589844"/><stop style="stop-color:#bccdd4;stop-opacity:1;" offset="0.59375"/><stop style="stop-color:#bdccd4;stop-opacity:1;" offset="0.597656"/><stop style="stop-color:#bdccd4;stop-opacity:1;" offset="0.601562"/><stop style="stop-color:#beccd4;stop-opacity:1;" offset="0.605469"/><stop style="stop-color:#becbd4;stop-opacity:1;" offset="0.609375"/><stop style="stop-color:#bfcbd4;stop-opacity:1;" offset="0.613281"/><stop style="stop-color:#bfcbd4;stop-opacity:1;" offset="0.617188"/><stop style="stop-color:#c0cad4;stop-opacity:1;" offset="0.621094"/><stop style="stop-color:#c0cad4;stop-opacity:1;" offset="0.625"/><stop style="stop-color:#c1cad4;stop-opacity:1;" offset="0.628906"/><stop style="stop-color:#c1cad4;stop-opacity:1;" offset="0.632812"/><stop style="stop-color:#c2c9d4;stop-opacity:1;" offset="0.636719"/><stop style="stop-color:#c3c9d4;stop-opacity:1;" offset="0.640625"/><stop style="stop-color:#c3c9d4;stop-opacity:1;" offset="0.644531"/><stop style="stop-color:#c4c8d4;stop-opacity:1;" offset="0.648438"/><stop style="stop-color:#c4c8d5;stop-opacity:1;" offset="0.652344"/><stop style="stop-color:#c5c8d5;stop-opacity:1;" offset="0.65625"/><stop style="stop-color:#c5c7d5;stop-opacity:1;" offset="0.660156"/><stop style="stop-color:#c6c7d5;stop-opacity:1;" offset="0.664062"/><stop style="stop-color:#c6c7d5;stop-opacity:1;" offset="0.667969"/><stop style="stop-color:#c7c6d5;stop-opacity:1;" offset="0.671875"/><stop style="stop-color:#c7c6d5;stop-opacity:1;" offset="0.675781"/><stop style="stop-color:#c8c6d5;stop-opacity:1;" offset="0.679688"/><stop style="stop-color:#c8c6d5;stop-opacity:1;" offset="0.683594"/><stop style="stop-color:#c9c5d5;stop-opacity:1;" offset="0.6875"/><stop style="stop-color:#c9c5d5;stop-opacity:1;" offset="0.691406"/><stop style="stop-color:#cac5d5;stop-opacity:1;" offset="0.695312"/><stop style="stop-color:#cac4d5;stop-opacity:1;" offset="0.699219"/><stop style="stop-color:#cbc4d5;stop-opacity:1;" offset="0.703125"/><stop style="stop-color:#cbc4d5;stop-opacity:1;" offset="0.707031"/><stop style="stop-color:#ccc3d5;stop-opacity:1;" offset="0.710938"/><stop style="stop-color:#ccc3d6;stop-opacity:1;" offset="0.714844"/><stop style="stop-color:#cdc3d6;stop-opacity:1;" offset="0.71875"/><stop style="stop-color:#cdc3d6;stop-opacity:1;" offset="0.722656"/><stop style="stop-color:#cec2d6;stop-opacity:1;" offset="0.726562"/><stop style="stop-color:#cec2d6;stop-opacity:1;" offset="0.730469"/><stop style="stop-color:#cfc2d6;stop-opacity:1;" offset="0.734375"/><stop style="stop-color:#cfc1d6;stop-opacity:1;" offset="0.738281"/><stop style="stop-color:#d0c1d6;stop-opacity:1;" offset="0.742188"/><stop style="stop-color:#d0c1d6;stop-opacity:1;" offset="0.746094"/><stop style="stop-color:#d1c0d6;stop-opacity:1;" offset="0.75"/><stop style="stop-color:#d1c0d6;stop-opacity:1;" offset="0.753906"/><stop style="stop-color:#d2c0d6;stop-opacity:1;" offset="0.757812"/><stop style="stop-color:#d3bfd6;stop-opacity:1;" offset="0.761719"/><stop style="stop-color:#d3bfd6;stop-opacity:1;" offset="0.765625"/><stop style="stop-color:#d4bfd6;stop-opacity:1;" offset="0.769531"/><stop style="stop-color:#d4bfd6;stop-opacity:1;" offset="0.773438"/><stop style="stop-color:#d5bed7;stop-opacity:1;" offset="0.777344"/><stop style="stop-color:#d5bed7;stop-opacity:1;" offset="0.78125"/><stop style="stop-color:#d6bed7;stop-opacity:1;" offset="0.785156"/><stop style="stop-color:#d6bdd7;stop-opacity:1;" offset="0.789062"/><stop style="stop-color:#d7bdd7;stop-opacity:1;" offset="0.792969"/><stop style="stop-color:#d7bdd7;stop-opacity:1;" offset="0.796875"/><stop style="stop-color:#d8bcd7;stop-opacity:1;" offset="0.800781"/><stop style="stop-color:#d8bcd7;stop-opacity:1;" offset="0.804688"/><stop style="stop-color:#d9bcd7;stop-opacity:1;" offset="0.808594"/><stop style="stop-color:#d9bcd7;stop-opacity:1;" offset="0.8125"/><stop style="stop-color:#dabbd7;stop-opacity:1;" offset="0.816406"/><stop style="stop-color:#dabbd7;stop-opacity:1;" offset="0.820312"/><stop style="stop-color:#dbbbd7;stop-opacity:1;" offset="0.824219"/><stop style="stop-color:#dbbad7;stop-opacity:1;" offset="0.828125"/><stop style="stop-color:#dcbad7;stop-opacity:1;" offset="0.832031"/><stop style="stop-color:#dcbad7;stop-opacity:1;" offset="0.835937"/><stop style="stop-color:#ddb9d7;stop-opacity:1;" offset="0.839844"/><stop style="stop-color:#ddb9d8;stop-opacity:1;" offset="0.84375"/><stop style="stop-color:#deb9d8;stop-opacity:1;" offset="0.847656"/><stop style="stop-color:#deb8d8;stop-opacity:1;" offset="0.851562"/><stop style="stop-color:#dfb8d8;stop-opacity:1;" offset="0.855469"/><stop style="stop-color:#dfb8d8;stop-opacity:1;" offset="0.859375"/><stop style="stop-color:#e0b8d8;stop-opacity:1;" offset="0.863281"/><stop style="stop-color:#e0b7d8;stop-opacity:1;" offset="0.867187"/><stop style="stop-color:#e1b7d8;stop-opacity:1;" offset="0.871094"/><stop style="stop-color:#e1b7d8;stop-opacity:1;" offset="0.875"/><stop style="stop-color:#e2b6d8;stop-opacity:1;" offset="0.878906"/><stop style="stop-color:#e3b6d8;stop-opacity:1;" offset="0.882812"/><stop style="stop-color:#e3b6d8;stop-opacity:1;" offset="0.886719"/><stop style="stop-color:#e4b5d8;stop-opacity:1;" offset="0.890625"/><stop style="stop-color:#e4b5d8;stop-opacity:1;" offset="0.894531"/><stop style="stop-color:#e5b5d8;stop-opacity:1;" offset="0.898437"/><stop style="stop-color:#e5b5d8;stop-opacity:1;" offset="0.902344"/><stop style="stop-color:#e6b4d9;stop-opacity:1;" offset="0.90625"/><stop style="stop-color:#e6b4d9;stop-opacity:1;" offset="0.910156"/><stop style="stop-color:#e7b4d9;stop-opacity:1;" offset="0.914062"/><stop style="stop-color:#e7b3d9;stop-opacity:1;" offset="0.917969"/><stop style="stop-color:#e8b3d9;stop-opacity:1;" offset="0.921875"/><stop style="stop-color:#e8b3d9;stop-opacity:1;" offset="0.925781"/><stop style="stop-color:#e9b2d9;stop-opacity:1;" offset="0.929687"/><stop style="stop-color:#e9b2d9;stop-opacity:1;" offset="0.933594"/><stop style="stop-color:#eab2d9;stop-opacity:1;" offset="0.9375"/><stop style="stop-color:#eab1d9;stop-opacity:1;" offset="0.941406"/><stop style="stop-color:#ebb1d9;stop-opacity:1;" offset="0.945312"/><stop style="stop-color:#ebb1d9;stop-opacity:1;" offset="0.949219"/><stop style="stop-color:#ecb1d9;stop-opacity:1;" offset="0.953125"/><stop style="stop-color:#ecb0d9;stop-opacity:1;" offset="0.957031"/><stop style="stop-color:#edb0d9;stop-opacity:1;" offset="0.960937"/><stop style="stop-color:#edb0d9;stop-opacity:1;" offset="0.964844"/><stop style="stop-color:#eeafda;stop-opacity:1;" offset="0.96875"/><stop style="stop-color:#eeafda;stop-opacity:1;" offset="0.972656"/><stop style="stop-color:#efafda;stop-opacity:1;" offset="0.976562"/><stop style="stop-color:#efaeda;stop-opacity:1;" offset="0.980469"/><stop style="stop-color:#f0aeda;stop-opacity:1;" offset="0.984375"/><stop style="stop-color:#f0aeda;stop-opacity:1;" offset="0.988281"/><stop style="stop-color:#f1adda;stop-opacity:1;" offset="0.992188"/><stop style="stop-color:#f1adda;stop-opacity:1;" offset="0.996094"/><stop style="stop-color:#f2adda;stop-opacity:1;" offset="1"/></linearGradient><clipPath id="446b63d0ca"><path d="M 25.394531 60.824219 L 49.03125 60.824219 L 49.03125 72.640625 L 25.394531 72.640625 Z M 25.394531 60.824219 "/></clipPath><clipPath id="1c38ee7794"><path d="M 49.027344 66.710938 C 49.027344 69.960938 46.394531 72.597656 43.140625 72.597656 L 31.382812 72.597656 C 28.132812 72.597656 25.445312 70 25.421875 66.753906 C 25.394531 63.484375 28.039062 60.824219 31.304688 60.824219 L 43.140625 60.824219 C 46.394531 60.824219 49.027344 63.460938 49.027344 66.710938 "/></clipPath><clipPath id="9a762cd09b"><path d="M 35.746094 35.769531 L 49.027344 35.769531 L 49.027344 57.417969 L 35.746094 57.417969 Z M 35.746094 35.769531 "/></clipPath><clipPath id="92a730233e"><path d="M 49.027344 45.25 L 49.027344 57.375 L 37.503906 45.855469 C 35.207031 43.554688 35.207031 39.828125 37.503906 37.53125 C 39.804688 35.230469 43.53125 35.230469 45.832031 37.527344 C 47.878906 39.574219 49.027344 42.351562 49.027344 45.25 "/></clipPath><clipPath id="c19c8b8269"><path d="M 35.746094 76.042969 L 49.027344 76.042969 L 49.027344 97.636719 L 35.746094 97.636719 Z M 35.746094 76.042969 "/></clipPath><clipPath id="83c08c90f9"><path d="M 49.027344 76.042969 L 49.027344 88.171875 C 49.027344 91.066406 47.878906 93.84375 45.832031 95.890625 C 43.53125 98.1875 39.808594 98.1875 37.503906 95.890625 C 35.203125 93.589844 35.207031 89.863281 37.503906 87.566406 Z M 49.027344 76.042969 "/></clipPath><clipPath id="961ce63efe"><path d="M 60.800781 25.417969 L 72.671875 25.417969 L 72.671875 47.675781 L 60.800781 47.675781 Z M 60.800781 25.417969 "/></clipPath><clipPath id="c029ba159d"><path d="M 72.574219 31.402344 C 72.574219 34.25 71.441406 36.980469 69.429688 38.996094 L 60.800781 47.621094 L 60.800781 31.328125 C 60.800781 28.0625 63.460938 25.417969 66.734375 25.441406 C 69.980469 25.46875 72.574219 28.15625 72.574219 31.402344 "/></clipPath><clipPath id="96c99ad61a"><path d="M 60.800781 85.765625 L 72.671875 85.765625 L 72.671875 108 L 60.800781 108 Z M 60.800781 85.765625 "/></clipPath><clipPath id="9357ba49e3"><path d="M 69.375 94.371094 C 71.425781 96.417969 72.574219 99.195312 72.574219 102.089844 C 72.574219 105.117188 70.289062 107.609375 67.351562 107.9375 C 67.351562 107.9375 67.347656 107.941406 67.347656 107.9375 C 67.125 107.941406 66.90625 107.945312 66.6875 107.945312 C 66.46875 107.945312 66.25 107.941406 66.027344 107.9375 C 66.023438 107.941406 66.023438 107.9375 66.023438 107.9375 C 63.085938 107.609375 60.800781 105.117188 60.800781 102.09375 L 60.800781 85.796875 Z M 69.375 94.371094 "/></clipPath><clipPath id="c3206e93c7"><path d="M 60.800781 35.804688 L 107.960938 35.804688 L 107.960938 97.640625 L 60.800781 97.640625 Z M 60.800781 35.804688 "/></clipPath><clipPath id="32c1509cc8"><path d="M 107.945312 66.398438 C 108.125 69.785156 105.355469 72.597656 101.96875 72.597656 L 80.949219 72.597656 C 80.929688 72.597656 80.921875 72.621094 80.933594 72.632812 L 95.871094 87.566406 C 98.167969 89.863281 98.167969 93.589844 95.867188 95.890625 C 93.582031 98.175781 89.882812 98.191406 87.582031 95.925781 C 87.566406 95.914062 87.554688 95.902344 87.542969 95.890625 C 87.527344 95.878906 87.515625 95.867188 87.507812 95.855469 L 72.574219 80.921875 L 72.574219 80.917969 L 66.6875 75.035156 L 62.523438 70.871094 C 61.421875 69.765625 60.800781 68.269531 60.800781 66.710938 C 60.800781 65.148438 61.421875 63.652344 62.523438 62.546875 L 64.25 60.824219 L 87.507812 37.566406 L 87.546875 37.53125 L 87.582031 37.492188 C 89.882812 35.230469 93.582031 35.242188 95.871094 37.53125 C 98.167969 39.828125 98.167969 43.558594 95.871094 45.855469 L 80.9375 60.789062 C 80.921875 60.804688 80.933594 60.828125 80.949219 60.828125 L 102.070312 60.828125 C 105.214844 60.828125 107.785156 63.296875 107.945312 66.402344 "/></clipPath><clipPath id="85cdbfac3a"><path d="M 125.570312 30.925781 L 143.503906 30.925781 L 143.503906 53.34375 L 125.570312 53.34375 Z M 125.570312 30.925781 "/></clipPath></defs><g id="cf541549c9"><g clip-rule="nonzero" clip-path="url(#21ce3a3d1f)"><g clip-rule="nonzero" clip-path="url(#c6b81e5eb7)"><path style=" stroke:none;fill-rule:nonzero;fill:#ffffff;fill-opacity:1;" d="M 0.382812 11.5 L 344.46875 11.5 L 344.46875 124.140625 L 0.382812 124.140625 Z M 0.382812 11.5 "/></g></g><g clip-rule="nonzero" clip-path="url(#94ba908742)"><g clip-rule="nonzero" clip-path="url(#b0078a73cb)"><path style="fill:none;stroke-width:20;stroke-linecap:butt;stroke-linejoin:miter;stroke:url(#e0f6d619ce);stroke-miterlimit:4;" d="M 22.999769 -0.000619438 L 437.204089 -0.000619438 C 443.301943 -0.000619438 449.154001 2.420741 453.46852 6.735261 C 457.77781 11.04978 460.2044 16.901837 460.2044 22.999691 L 460.2044 127.735303 C 460.2044 133.833157 457.77781 139.685214 453.46852 143.999734 C 449.154001 148.309023 443.301943 150.735614 437.204089 150.735614 L 22.999769 150.735614 C 16.901915 150.735614 11.049858 148.309023 6.735338 143.999734 C 2.420819 139.685214 -0.000541715 133.833157 -0.000541715 127.735303 L -0.000541715 22.999691 C -0.000541715 16.901837 2.420819 11.04978 6.735338 6.735261 C 11.049858 2.420741 16.901915 -0.000619438 22.999769 -0.000619438 Z M 22.999769 -0.000619438 " transform="matrix(0.746933,0,0,0.746933,0.383217,11.500463)"/></g></g><g clip-rule="nonzero" clip-path="url(#446b63d0ca)"><g clip-rule="nonzero" clip-path="url(#1c38ee7794)"><path style=" stroke:none;fill-rule:nonzero;fill:#191825;fill-opacity:1;" d="M 25.394531 60.824219 L 49.03125 60.824219 L 49.03125 72.597656 L 25.394531 72.597656 Z M 25.394531 60.824219 "/></g></g><g clip-rule="nonzero" clip-path="url(#9a762cd09b)"><g clip-rule="nonzero" clip-path="url(#92a730233e)"><path style=" stroke:none;fill-rule:nonzero;fill:#9aadf6;fill-opacity:1;" d="M 35.207031 35.230469 L 49.027344 35.230469 L 49.027344 57.363281 L 35.207031 57.363281 Z M 35.207031 35.230469 "/></g></g><g clip-rule="nonzero" clip-path="url(#c19c8b8269)"><g clip-rule="nonzero" clip-path="url(#83c08c90f9)"><path style=" stroke:none;fill-rule:nonzero;fill:#fae16e;fill-opacity:1;" d="M 35.207031 76.042969 L 49.027344 76.042969 L 49.027344 98.179688 L 35.207031 98.179688 Z M 35.207031 76.042969 "/></g></g><g clip-rule="nonzero" clip-path="url(#961ce63efe)"><g clip-rule="nonzero" clip-path="url(#c029ba159d)"><path style=" stroke:none;fill-rule:nonzero;fill:#f2adda;fill-opacity:1;" d="M 59.976562 24.59375 L 108.949219 24.59375 L 108.949219 108.851562 L 59.976562 108.851562 Z M 59.976562 24.59375 "/></g></g><g clip-rule="nonzero" clip-path="url(#96c99ad61a)"><g clip-rule="nonzero" clip-path="url(#9357ba49e3)"><path style=" stroke:none;fill-rule:nonzero;fill:#b0d4d2;fill-opacity:1;" d="M 59.976562 24.59375 L 108.949219 24.59375 L 108.949219 108.851562 L 59.976562 108.851562 Z M 59.976562 24.59375 "/></g></g><g clip-rule="nonzero" clip-path="url(#c3206e93c7)"><g clip-rule="nonzero" clip-path="url(#32c1509cc8)"><path style=" stroke:none;fill-rule:nonzero;fill:#191825;fill-opacity:1;" d="M 59.976562 24.59375 L 108.949219 24.59375 L 108.949219 108.851562 L 59.976562 108.851562 Z M 59.976562 24.59375 "/></g></g><g clip-rule="nonzero" clip-path="url(#85cdbfac3a)"><path style=" stroke:none;fill-rule:nonzero;fill:#000000;fill-opacity:1;" d="M 142.933594 38.570312 C 142.808594 38.667969 140.550781 39.960938 140.550781 42.839844 C 140.550781 46.164062 143.421875 47.34375 143.507812 47.371094 C 143.496094 47.441406 143.050781 48.984375 141.996094 50.550781 C 141.050781 51.933594 140.066406 53.3125 138.566406 53.3125 C 137.070312 53.3125 136.683594 52.425781 134.953125 52.425781 C 133.269531 52.425781 132.671875 53.339844 131.300781 53.339844 C 129.929688 53.339844 128.972656 52.0625 127.875 50.496094 C 126.601562 48.652344 125.570312 45.789062 125.570312 43.070312 C 125.570312 38.714844 128.355469 36.402344 131.097656 36.402344 C 132.554688 36.402344 133.765625 37.375 134.683594 37.375 C 135.550781 37.375 136.910156 36.34375 138.566406 36.34375 C 139.195312 36.34375 141.449219 36.402344 142.933594 38.570312 Z M 137.78125 34.5 C 138.464844 33.671875 138.949219 32.523438 138.949219 31.378906 C 138.949219 31.21875 138.9375 31.058594 138.90625 30.925781 C 137.792969 30.96875 136.464844 31.683594 135.667969 32.625 C 135.039062 33.351562 134.453125 34.5 134.453125 35.664062 C 134.453125 35.839844 134.480469 36.011719 134.496094 36.070312 C 134.566406 36.082031 134.679688 36.097656 134.792969 36.097656 C 135.792969 36.097656 137.050781 35.417969 137.78125 34.5 Z M 137.78125 34.5 "/></g><g style="fill:#191825;fill-opacity:1;"><g transform="translate(123.545863, 96.590617)"><path style="stroke:none" d="M 10.640625 -57.421875 C 12.609375 -57.421875 14.1875 -56.863281 15.375 -55.75 C 16.570312 -54.632812 17.171875 -53.144531 17.171875 -51.28125 C 17.171875 -49.363281 16.570312 -47.847656 15.375 -46.734375 C 14.1875 -45.617188 12.609375 -45.0625 10.640625 -45.0625 C 8.722656 -45.0625 7.171875 -45.617188 5.984375 -46.734375 C 4.796875 -47.847656 4.203125 -49.363281 4.203125 -51.28125 C 4.203125 -53.144531 4.796875 -54.632812 5.984375 -55.75 C 7.171875 -56.863281 8.722656 -57.421875 10.640625 -57.421875 Z M 16.78125 0 L 4.578125 0 L 4.578125 -41.421875 L 16.78125 -41.421875 Z M 16.78125 0 "/></g></g><g style="fill:#191825;fill-opacity:1;"><g transform="translate(144.992062, 96.590617)"><path style="stroke:none" d="M 65.96875 -53.609375 L 65.96875 0 L 53.765625 0 L 53.765625 -23.78125 C 53.765625 -26.363281 53.773438 -29.285156 53.796875 -32.546875 C 53.828125 -35.816406 53.867188 -38.828125 53.921875 -41.578125 C 53.410156 -38.828125 52.738281 -35.832031 51.90625 -32.59375 C 51.070312 -29.351562 50.269531 -26.441406 49.5 -23.859375 L 42.734375 0 L 29.84375 0 L 22.921875 -23.859375 C 22.191406 -26.441406 21.425781 -29.335938 20.625 -32.546875 C 19.820312 -35.765625 19.164062 -38.75 18.65625 -41.5 C 18.75 -38.75 18.796875 -35.753906 18.796875 -32.515625 C 18.796875 -29.273438 18.796875 -26.363281 18.796875 -23.78125 L 18.796875 0 L 6.609375 0 L 6.609375 -53.609375 L 25.71875 -53.609375 L 36.515625 -11.578125 L 47.328125 -53.609375 Z M 65.96875 -53.609375 "/></g></g><g style="fill:#191825;fill-opacity:1;"><g transform="translate(215.624659, 96.590617)"><path style="stroke:none" d="M 28.75 0 L 27.890625 -6.0625 L 26.03125 -1.625 C 24.582031 -0.695312 22.988281 -0.015625 21.25 0.421875 C 19.519531 0.867188 17.695312 1.09375 15.78125 1.09375 C 13.445312 1.09375 11.269531 0.628906 9.25 -0.296875 C 7.226562 -1.234375 5.59375 -2.609375 4.34375 -4.421875 C 3.101562 -6.242188 2.484375 -8.445312 2.484375 -11.03125 C 2.484375 -15.539062 4.425781 -19.050781 8.3125 -21.5625 C 12.195312 -24.070312 17.789062 -25.328125 25.09375 -25.328125 L 27.734375 -25.328125 L 27.734375 -26.03125 C 27.734375 -26.601562 27.734375 -27.171875 27.734375 -27.734375 C 27.734375 -28.304688 27.679688 -28.929688 27.578125 -29.609375 C 27.472656 -30.847656 26.941406 -31.90625 25.984375 -32.78125 C 25.023438 -33.664062 23.640625 -34.109375 21.828125 -34.109375 C 19.910156 -34.109375 18.429688 -33.550781 17.390625 -32.4375 C 16.359375 -31.320312 15.769531 -29.726562 15.625 -27.65625 L 3.96875 -27.65625 C 4.070312 -30.820312 4.9375 -33.503906 6.5625 -35.703125 C 8.195312 -37.898438 10.382812 -39.582031 13.125 -40.75 C 15.875 -41.914062 18.929688 -42.5 22.296875 -42.5 C 26.390625 -42.5 29.664062 -41.953125 32.125 -40.859375 C 34.59375 -39.773438 36.40625 -38.273438 37.5625 -36.359375 C 38.726562 -34.441406 39.414062 -32.242188 39.625 -29.765625 C 39.78125 -27.847656 39.859375 -25.617188 39.859375 -23.078125 L 39.859375 -10.484375 C 39.859375 -8.929688 39.910156 -7.363281 40.015625 -5.78125 C 40.117188 -4.207031 40.328125 -2.28125 40.640625 0 Z M 20.59375 -7.296875 C 22.40625 -7.296875 24.046875 -7.957031 25.515625 -9.28125 C 26.992188 -10.601562 27.734375 -12.535156 27.734375 -15.078125 L 27.734375 -18.109375 C 23.953125 -18.421875 20.882812 -18.097656 18.53125 -17.140625 C 16.175781 -16.179688 15 -14.484375 15 -12.046875 C 15 -10.492188 15.515625 -9.3125 16.546875 -8.5 C 17.585938 -7.695312 18.9375 -7.296875 20.59375 -7.296875 Z M 20.59375 -7.296875 "/></g></g><g style="fill:#191825;fill-opacity:1;"><g transform="translate(260.148842, 96.590617)"><path style="stroke:none" d="M 27.421875 -42.5 C 28.097656 -42.5 28.671875 -42.472656 29.140625 -42.421875 C 29.609375 -42.367188 30.070312 -42.289062 30.53125 -42.1875 L 30.53125 -32.328125 C 25.71875 -32.640625 22.222656 -31.679688 20.046875 -29.453125 C 17.867188 -27.222656 16.78125 -23.179688 16.78125 -17.328125 L 16.78125 0 L 4.578125 0 L 4.578125 -41.421875 L 16.78125 -41.421875 L 16.78125 -33.484375 L 19.890625 -39.234375 C 20.929688 -40.328125 22.148438 -41.144531 23.546875 -41.6875 C 24.941406 -42.226562 26.234375 -42.5 27.421875 -42.5 Z M 27.421875 -42.5 "/></g></g><g style="fill:#191825;fill-opacity:1;"><g transform="translate(291.074888, 96.590617)"><path style="stroke:none" d="M 19.1875 -33.328125 L 19.1875 -15.921875 C 19.1875 -15.253906 19.1875 -14.582031 19.1875 -13.90625 C 19.1875 -13.238281 19.210938 -12.617188 19.265625 -12.046875 C 19.421875 -9.972656 20.003906 -8.625 21.015625 -8 C 22.023438 -7.382812 24.085938 -7.175781 27.203125 -7.375 L 27.203125 0.390625 C 25.953125 0.597656 24.71875 0.753906 23.5 0.859375 C 22.28125 0.960938 21 1.015625 19.65625 1.015625 C 15.101562 1.015625 11.941406 0.265625 10.171875 -1.234375 C 8.410156 -2.742188 7.40625 -5 7.15625 -8 C 7.101562 -9.039062 7.0625 -10.066406 7.03125 -11.078125 C 7.007812 -12.085938 7 -13.160156 7 -14.296875 L 7 -33.328125 L 0.703125 -33.328125 L 0.703125 -41.109375 L 7 -41.109375 L 7 -51.515625 L 19.1875 -51.515625 L 19.1875 -41.109375 L 27.96875 -41.109375 L 27.96875 -33.328125 Z M 19.1875 -33.328125 "/></g></g></g></svg>