<svg xmlns="http://www.w3.org/2000/svg" xmlns:xlink="http://www.w3.org/1999/xlink" width="358" zoomAndPan="magnify" viewBox="0 0 268.5 113.249998" height="151" preserveAspectRatio="xMidYMid meet" version="1.2"><defs><clipPath id="8c99c93d7e"><path d="M 0.636719 0 L 267.367188 0 L 267.367188 112.308594 L 0.636719 112.308594 Z M 0.636719 0 "/></clipPath><clipPath id="3fe5063d8e"><path d="M 17.769531 0 L 250.070312 0 C 254.617188 0 258.976562 1.804688 262.1875 5.019531 C 265.402344 8.234375 267.207031 12.589844 267.207031 17.136719 L 267.207031 95.171875 C 267.207031 99.71875 265.402344 104.078125 262.1875 107.289062 C 258.976562 110.503906 254.617188 112.308594 250.070312 112.308594 L 17.769531 112.308594 C 13.226562 112.308594 8.867188 110.503906 5.652344 107.289062 C 2.441406 104.078125 0.636719 99.71875 0.636719 95.171875 L 0.636719 17.136719 C 0.636719 12.589844 2.441406 8.234375 5.652344 5.019531 C 8.867188 1.804688 13.226562 0 17.769531 0 Z M 17.769531 0 "/></clipPath><clipPath id="c6761093ae"><path d="M 0.636719 0 L 267.367188 0 L 267.367188 112.503906 L 0.636719 112.503906 Z M 0.636719 0 "/></clipPath><clipPath id="4a00ded6bf"><path d="M 17.773438 0 L 250.066406 0 C 254.613281 0 258.972656 1.804688 262.183594 5.019531 C 265.398438 8.234375 267.203125 12.589844 267.203125 17.136719 L 267.203125 95.171875 C 267.203125 99.714844 265.398438 104.074219 262.183594 107.289062 C 258.972656 110.5 254.613281 112.308594 250.066406 112.308594 L 17.773438 112.308594 C 13.226562 112.308594 8.871094 110.5 5.65625 107.289062 C 2.441406 104.074219 0.636719 99.714844 0.636719 95.171875 L 0.636719 17.136719 C 0.636719 12.589844 2.441406 8.234375 5.65625 5.019531 C 8.871094 1.804688 13.226562 0 17.773438 0 Z M 17.773438 0 "/></clipPath><linearGradient x1="-0.0000000000438234" gradientTransform="matrix(2.343687,0,0,2.343687,0.000000000102708,0.000000000000003885)" y1="32.158001" x2="152.655142" gradientUnits="userSpaceOnUse" y2="32.158001" id="62a0c032fc"><stop style="stop-color:#9aadf9;stop-opacity:1;" offset="0"/><stop style="stop-color:#9aadf9;stop-opacity:1;" offset="0.0078125"/><stop style="stop-color:#9baef8;stop-opacity:1;" offset="0.015625"/><stop style="stop-color:#9baef7;stop-opacity:1;" offset="0.0234375"/><stop style="stop-color:#9baff7;stop-opacity:1;" offset="0.03125"/><stop style="stop-color:#9cb0f6;stop-opacity:1;" offset="0.0390625"/><stop style="stop-color:#9cb0f6;stop-opacity:1;" offset="0.046875"/><stop style="stop-color:#9cb1f5;stop-opacity:1;" offset="0.0546875"/><stop style="stop-color:#9db1f4;stop-opacity:1;" offset="0.0625"/><stop style="stop-color:#9db2f4;stop-opacity:1;" offset="0.0703125"/><stop style="stop-color:#9db3f3;stop-opacity:1;" offset="0.078125"/><stop style="stop-color:#9eb3f3;stop-opacity:1;" offset="0.0859375"/><stop style="stop-color:#9eb4f2;stop-opacity:1;" offset="0.09375"/><stop style="stop-color:#9eb5f1;stop-opacity:1;" offset="0.101562"/><stop style="stop-color:#9fb5f1;stop-opacity:1;" offset="0.109375"/><stop style="stop-color:#9fb6f0;stop-opacity:1;" offset="0.117188"/><stop style="stop-color:#9fb6ef;stop-opacity:1;" offset="0.125"/><stop style="stop-color:#a0b7ef;stop-opacity:1;" offset="0.132812"/><stop style="stop-color:#a0b8ee;stop-opacity:1;" offset="0.140625"/><stop style="stop-color:#a0b8ee;stop-opacity:1;" offset="0.148437"/><stop style="stop-color:#a1b9ed;stop-opacity:1;" offset="0.15625"/><stop style="stop-color:#a1b9ec;stop-opacity:1;" offset="0.164062"/><stop style="stop-color:#a1baec;stop-opacity:1;" offset="0.171875"/><stop style="stop-color:#a2bbeb;stop-opacity:1;" offset="0.179688"/><stop style="stop-color:#a2bbeb;stop-opacity:1;" offset="0.1875"/><stop style="stop-color:#a2bcea;stop-opacity:1;" offset="0.195312"/><stop style="stop-color:#a3bce9;stop-opacity:1;" offset="0.203125"/><stop style="stop-color:#a3bde9;stop-opacity:1;" offset="0.210938"/><stop style="stop-color:#a3bee8;stop-opacity:1;" offset="0.21875"/><stop style="stop-color:#a4bee8;stop-opacity:1;" offset="0.226562"/><stop style="stop-color:#a4bfe7;stop-opacity:1;" offset="0.234375"/><stop style="stop-color:#a4bfe6;stop-opacity:1;" offset="0.242187"/><stop style="stop-color:#a5c0e6;stop-opacity:1;" offset="0.25"/><stop style="stop-color:#a5c1e5;stop-opacity:1;" offset="0.257812"/><stop style="stop-color:#a5c1e5;stop-opacity:1;" offset="0.265625"/><stop style="stop-color:#a6c2e4;stop-opacity:1;" offset="0.273437"/><stop style="stop-color:#a6c3e3;stop-opacity:1;" offset="0.28125"/><stop style="stop-color:#a7c3e3;stop-opacity:1;" offset="0.289062"/><stop style="stop-color:#a7c4e2;stop-opacity:1;" offset="0.296875"/><stop style="stop-color:#a7c4e2;stop-opacity:1;" offset="0.304687"/><stop style="stop-color:#a8c5e1;stop-opacity:1;" offset="0.3125"/><stop style="stop-color:#a8c6e0;stop-opacity:1;" offset="0.320312"/><stop style="stop-color:#a8c6e0;stop-opacity:1;" offset="0.328125"/><stop style="stop-color:#a9c7df;stop-opacity:1;" offset="0.335938"/><stop style="stop-color:#a9c7df;stop-opacity:1;" offset="0.34375"/><stop style="stop-color:#a9c8de;stop-opacity:1;" offset="0.351562"/><stop style="stop-color:#aac9dd;stop-opacity:1;" offset="0.359375"/><stop style="stop-color:#aac9dd;stop-opacity:1;" offset="0.367187"/><stop style="stop-color:#aacadc;stop-opacity:1;" offset="0.375"/><stop style="stop-color:#abcadc;stop-opacity:1;" offset="0.382812"/><stop style="stop-color:#abcbdb;stop-opacity:1;" offset="0.390625"/><stop style="stop-color:#abccda;stop-opacity:1;" offset="0.398437"/><stop style="stop-color:#acccda;stop-opacity:1;" offset="0.40625"/><stop style="stop-color:#accdd9;stop-opacity:1;" offset="0.414062"/><stop style="stop-color:#acced8;stop-opacity:1;" offset="0.421875"/><stop style="stop-color:#adced8;stop-opacity:1;" offset="0.429687"/><stop style="stop-color:#adcfd7;stop-opacity:1;" offset="0.4375"/><stop style="stop-color:#adcfd7;stop-opacity:1;" offset="0.445312"/><stop style="stop-color:#aed0d6;stop-opacity:1;" offset="0.453125"/><stop style="stop-color:#aed1d5;stop-opacity:1;" offset="0.460937"/><stop style="stop-color:#aed1d5;stop-opacity:1;" offset="0.46875"/><stop style="stop-color:#afd2d4;stop-opacity:1;" offset="0.476562"/><stop style="stop-color:#afd2d4;stop-opacity:1;" offset="0.484375"/><stop style="stop-color:#afd3d3;stop-opacity:1;" offset="0.492187"/><stop style="stop-color:#b0d4d2;stop-opacity:1;" offset="0.5"/><stop style="stop-color:#b0d4d2;stop-opacity:1;" offset="0.503906"/><stop style="stop-color:#b1d3d2;stop-opacity:1;" offset="0.507812"/><stop style="stop-color:#b1d3d2;stop-opacity:1;" offset="0.511719"/><stop style="stop-color:#b2d3d2;stop-opacity:1;" offset="0.515625"/><stop style="stop-color:#b3d2d2;stop-opacity:1;" offset="0.519531"/><stop style="stop-color:#b3d2d2;stop-opacity:1;" offset="0.523438"/><stop style="stop-color:#b4d2d3;stop-opacity:1;" offset="0.527344"/><stop style="stop-color:#b4d1d3;stop-opacity:1;" offset="0.53125"/><stop style="stop-color:#b5d1d3;stop-opacity:1;" offset="0.535156"/><stop style="stop-color:#b5d1d3;stop-opacity:1;" offset="0.539062"/><stop style="stop-color:#b6d1d3;stop-opacity:1;" offset="0.542969"/><stop style="stop-color:#b6d0d3;stop-opacity:1;" offset="0.546875"/><stop style="stop-color:#b7d0d3;stop-opacity:1;" offset="0.550781"/><stop style="stop-color:#b7d0d3;stop-opacity:1;" offset="0.554688"/><stop style="stop-color:#b8cfd3;stop-opacity:1;" offset="0.558594"/><stop style="stop-color:#b8cfd3;stop-opacity:1;" offset="0.5625"/><stop style="stop-color:#b9cfd3;stop-opacity:1;" offset="0.566406"/><stop style="stop-color:#b9ced3;stop-opacity:1;" offset="0.570312"/><stop style="stop-color:#baced3;stop-opacity:1;" offset="0.574219"/><stop style="stop-color:#baced3;stop-opacity:1;" offset="0.578125"/><stop style="stop-color:#bbced3;stop-opacity:1;" offset="0.582031"/><stop style="stop-color:#bbcdd3;stop-opacity:1;" offset="0.585938"/><stop style="stop-color:#bccdd4;stop-opacity:1;" offset="0.589844"/><stop style="stop-color:#bccdd4;stop-opacity:1;" offset="0.59375"/><stop style="stop-color:#bdccd4;stop-opacity:1;" offset="0.597656"/><stop style="stop-color:#bdccd4;stop-opacity:1;" offset="0.601562"/><stop style="stop-color:#beccd4;stop-opacity:1;" offset="0.605469"/><stop style="stop-color:#becbd4;stop-opacity:1;" offset="0.609375"/><stop style="stop-color:#bfcbd4;stop-opacity:1;" offset="0.613281"/><stop style="stop-color:#bfcbd4;stop-opacity:1;" offset="0.617188"/><stop style="stop-color:#c0cad4;stop-opacity:1;" offset="0.621094"/><stop style="stop-color:#c0cad4;stop-opacity:1;" offset="0.625"/><stop style="stop-color:#c1cad4;stop-opacity:1;" offset="0.628906"/><stop style="stop-color:#c1cad4;stop-opacity:1;" offset="0.632812"/><stop style="stop-color:#c2c9d4;stop-opacity:1;" offset="0.636719"/><stop style="stop-color:#c3c9d4;stop-opacity:1;" offset="0.640625"/><stop style="stop-color:#c3c9d4;stop-opacity:1;" offset="0.644531"/><stop style="stop-color:#c4c8d4;stop-opacity:1;" offset="0.648438"/><stop style="stop-color:#c4c8d5;stop-opacity:1;" offset="0.652344"/><stop style="stop-color:#c5c8d5;stop-opacity:1;" offset="0.65625"/><stop style="stop-color:#c5c7d5;stop-opacity:1;" offset="0.660156"/><stop style="stop-color:#c6c7d5;stop-opacity:1;" offset="0.664062"/><stop style="stop-color:#c6c7d5;stop-opacity:1;" offset="0.667969"/><stop style="stop-color:#c7c6d5;stop-opacity:1;" offset="0.671875"/><stop style="stop-color:#c7c6d5;stop-opacity:1;" offset="0.675781"/><stop style="stop-color:#c8c6d5;stop-opacity:1;" offset="0.679688"/><stop style="stop-color:#c8c6d5;stop-opacity:1;" offset="0.683594"/><stop style="stop-color:#c9c5d5;stop-opacity:1;" offset="0.6875"/><stop style="stop-color:#c9c5d5;stop-opacity:1;" offset="0.691406"/><stop style="stop-color:#cac5d5;stop-opacity:1;" offset="0.695312"/><stop style="stop-color:#cac4d5;stop-opacity:1;" offset="0.699219"/><stop style="stop-color:#cbc4d5;stop-opacity:1;" offset="0.703125"/><stop style="stop-color:#cbc4d5;stop-opacity:1;" offset="0.707031"/><stop style="stop-color:#ccc3d5;stop-opacity:1;" offset="0.710938"/><stop style="stop-color:#ccc3d6;stop-opacity:1;" offset="0.714844"/><stop style="stop-color:#cdc3d6;stop-opacity:1;" offset="0.71875"/><stop style="stop-color:#cdc3d6;stop-opacity:1;" offset="0.722656"/><stop style="stop-color:#cec2d6;stop-opacity:1;" offset="0.726562"/><stop style="stop-color:#cec2d6;stop-opacity:1;" offset="0.730469"/><stop style="stop-color:#cfc2d6;stop-opacity:1;" offset="0.734375"/><stop style="stop-color:#cfc1d6;stop-opacity:1;" offset="0.738281"/><stop style="stop-color:#d0c1d6;stop-opacity:1;" offset="0.742187"/><stop style="stop-color:#d0c1d6;stop-opacity:1;" offset="0.746094"/><stop style="stop-color:#d1c0d6;stop-opacity:1;" offset="0.75"/><stop style="stop-color:#d1c0d6;stop-opacity:1;" offset="0.753906"/><stop style="stop-color:#d2c0d6;stop-opacity:1;" offset="0.757813"/><stop style="stop-color:#d3bfd6;stop-opacity:1;" offset="0.761719"/><stop style="stop-color:#d3bfd6;stop-opacity:1;" offset="0.765625"/><stop style="stop-color:#d4bfd6;stop-opacity:1;" offset="0.769531"/><stop style="stop-color:#d4bfd6;stop-opacity:1;" offset="0.773438"/><stop style="stop-color:#d5bed7;stop-opacity:1;" offset="0.777344"/><stop style="stop-color:#d5bed7;stop-opacity:1;" offset="0.78125"/><stop style="stop-color:#d6bed7;stop-opacity:1;" offset="0.785156"/><stop style="stop-color:#d6bdd7;stop-opacity:1;" offset="0.789062"/><stop style="stop-color:#d7bdd7;stop-opacity:1;" offset="0.792969"/><stop style="stop-color:#d7bdd7;stop-opacity:1;" offset="0.796875"/><stop style="stop-color:#d8bcd7;stop-opacity:1;" offset="0.800781"/><stop style="stop-color:#d8bcd7;stop-opacity:1;" offset="0.804688"/><stop style="stop-color:#d9bcd7;stop-opacity:1;" offset="0.808594"/><stop style="stop-color:#d9bcd7;stop-opacity:1;" offset="0.8125"/><stop style="stop-color:#dabbd7;stop-opacity:1;" offset="0.816406"/><stop style="stop-color:#dabbd7;stop-opacity:1;" offset="0.820312"/><stop style="stop-color:#dbbbd7;stop-opacity:1;" offset="0.824219"/><stop style="stop-color:#dbbad7;stop-opacity:1;" offset="0.828125"/><stop style="stop-color:#dcbad7;stop-opacity:1;" offset="0.832031"/><stop style="stop-color:#dcbad7;stop-opacity:1;" offset="0.835938"/><stop style="stop-color:#ddb9d7;stop-opacity:1;" offset="0.839844"/><stop style="stop-color:#ddb9d8;stop-opacity:1;" offset="0.84375"/><stop style="stop-color:#deb9d8;stop-opacity:1;" offset="0.847656"/><stop style="stop-color:#deb8d8;stop-opacity:1;" offset="0.851562"/><stop style="stop-color:#dfb8d8;stop-opacity:1;" offset="0.855469"/><stop style="stop-color:#dfb8d8;stop-opacity:1;" offset="0.859375"/><stop style="stop-color:#e0b8d8;stop-opacity:1;" offset="0.863281"/><stop style="stop-color:#e0b7d8;stop-opacity:1;" offset="0.867188"/><stop style="stop-color:#e1b7d8;stop-opacity:1;" offset="0.871094"/><stop style="stop-color:#e1b7d8;stop-opacity:1;" offset="0.875"/><stop style="stop-color:#e2b6d8;stop-opacity:1;" offset="0.878906"/><stop style="stop-color:#e3b6d8;stop-opacity:1;" offset="0.882812"/><stop style="stop-color:#e3b6d8;stop-opacity:1;" offset="0.886719"/><stop style="stop-color:#e4b5d8;stop-opacity:1;" offset="0.890625"/><stop style="stop-color:#e4b5d8;stop-opacity:1;" offset="0.894531"/><stop style="stop-color:#e5b5d8;stop-opacity:1;" offset="0.898438"/><stop style="stop-color:#e5b5d8;stop-opacity:1;" offset="0.902344"/><stop style="stop-color:#e6b4d9;stop-opacity:1;" offset="0.90625"/><stop style="stop-color:#e6b4d9;stop-opacity:1;" offset="0.910156"/><stop style="stop-color:#e7b4d9;stop-opacity:1;" offset="0.914062"/><stop style="stop-color:#e7b3d9;stop-opacity:1;" offset="0.917969"/><stop style="stop-color:#e8b3d9;stop-opacity:1;" offset="0.921875"/><stop style="stop-color:#e8b3d9;stop-opacity:1;" offset="0.925781"/><stop style="stop-color:#e9b2d9;stop-opacity:1;" offset="0.929688"/><stop style="stop-color:#e9b2d9;stop-opacity:1;" offset="0.933594"/><stop style="stop-color:#eab2d9;stop-opacity:1;" offset="0.9375"/><stop style="stop-color:#eab1d9;stop-opacity:1;" offset="0.941406"/><stop style="stop-color:#ebb1d9;stop-opacity:1;" offset="0.945312"/><stop style="stop-color:#ebb1d9;stop-opacity:1;" offset="0.949219"/><stop style="stop-color:#ecb1d9;stop-opacity:1;" offset="0.953125"/><stop style="stop-color:#ecb0d9;stop-opacity:1;" offset="0.957031"/><stop style="stop-color:#edb0d9;stop-opacity:1;" offset="0.960938"/><stop style="stop-color:#edb0d9;stop-opacity:1;" offset="0.964844"/><stop style="stop-color:#eeafda;stop-opacity:1;" offset="0.96875"/><stop style="stop-color:#eeafda;stop-opacity:1;" offset="0.972656"/><stop style="stop-color:#efafda;stop-opacity:1;" offset="0.976562"/><stop style="stop-color:#efaeda;stop-opacity:1;" offset="0.980469"/><stop style="stop-color:#f0aeda;stop-opacity:1;" offset="0.984375"/><stop style="stop-color:#f0aeda;stop-opacity:1;" offset="0.988281"/><stop style="stop-color:#f1adda;stop-opacity:1;" offset="0.992188"/><stop style="stop-color:#f1adda;stop-opacity:1;" offset="0.996094"/><stop style="stop-color:#f2adda;stop-opacity:1;" offset="1"/></linearGradient><clipPath id="f8dfb938e1"><path d="M 25.574219 49.179688 L 49.140625 49.179688 L 49.140625 60.960938 L 25.574219 60.960938 Z M 25.574219 49.179688 "/></clipPath><clipPath id="04734c0fd5"><path d="M 49.136719 55.046875 C 49.136719 58.289062 46.511719 60.917969 43.269531 60.917969 L 31.542969 60.917969 C 28.304688 60.917969 25.621094 58.328125 25.597656 55.09375 C 25.574219 51.828125 28.210938 49.179688 31.464844 49.179688 L 43.269531 49.179688 C 46.507812 49.179688 49.136719 51.808594 49.136719 55.046875 "/></clipPath><clipPath id="1268bf6c1d"><path d="M 35.894531 24.199219 L 49.136719 24.199219 L 49.136719 45.78125 L 35.894531 45.78125 Z M 35.894531 24.199219 "/></clipPath><clipPath id="52054ffe50"><path d="M 49.136719 33.648438 L 49.136719 45.742188 L 37.648438 34.253906 C 35.355469 31.960938 35.355469 28.246094 37.648438 25.953125 C 39.9375 23.660156 43.65625 23.660156 45.949219 25.949219 C 47.988281 27.992188 49.136719 30.761719 49.136719 33.648438 "/></clipPath><clipPath id="f83479094a"><path d="M 35.894531 64.355469 L 49.136719 64.355469 L 49.136719 85.886719 L 35.894531 85.886719 Z M 35.894531 64.355469 "/></clipPath><clipPath id="eb43334a30"><path d="M 49.136719 64.355469 L 49.136719 76.445312 C 49.136719 79.332031 47.988281 82.101562 45.949219 84.140625 C 43.65625 86.433594 39.941406 86.433594 37.648438 84.140625 C 35.355469 81.847656 35.355469 78.132812 37.648438 75.84375 Z M 49.136719 64.355469 "/></clipPath><clipPath id="a11eb11b4e"><path d="M 60.875 13.875 L 72.710938 13.875 L 72.710938 36.070312 L 60.875 36.070312 Z M 60.875 13.875 "/></clipPath><clipPath id="cf7de097c1"><path d="M 72.613281 19.84375 C 72.613281 22.683594 71.484375 25.40625 69.476562 27.414062 L 60.875 36.015625 L 60.875 19.769531 C 60.875 16.511719 63.527344 13.875 66.789062 13.902344 C 70.027344 13.925781 72.613281 16.609375 72.613281 19.84375 "/></clipPath><clipPath id="b0908e0024"><path d="M 60.875 74.046875 L 72.710938 74.046875 L 72.710938 96.242188 L 60.875 96.242188 Z M 60.875 74.046875 "/></clipPath><clipPath id="5f7063af33"><path d="M 69.425781 82.625 C 71.46875 84.667969 72.613281 87.4375 72.613281 90.324219 C 72.613281 93.339844 70.335938 95.824219 67.40625 96.15625 C 67.40625 96.15625 67.402344 96.15625 67.402344 96.15625 C 67.183594 96.160156 66.960938 96.160156 66.742188 96.160156 C 66.523438 96.160156 66.304688 96.160156 66.085938 96.15625 C 66.082031 96.15625 66.082031 96.15625 66.082031 96.15625 C 63.152344 95.828125 60.875 93.34375 60.875 90.324219 L 60.875 74.078125 Z M 69.425781 82.625 "/></clipPath><clipPath id="fa7938cf00"><path d="M 60.875 24.234375 L 107.894531 24.234375 L 107.894531 85.886719 L 60.875 85.886719 Z M 60.875 24.234375 "/></clipPath><clipPath id="1efb86425a"><path d="M 107.882812 54.738281 C 108.058594 58.113281 105.300781 60.917969 101.921875 60.917969 L 80.964844 60.917969 C 80.945312 60.917969 80.9375 60.9375 80.949219 60.953125 L 95.839844 75.84375 C 98.132812 78.132812 98.132812 81.851562 95.839844 84.140625 C 93.558594 86.421875 89.871094 86.433594 87.574219 84.179688 C 87.5625 84.167969 87.550781 84.15625 87.539062 84.140625 C 87.523438 84.128906 87.511719 84.117188 87.5 84.105469 L 72.613281 69.214844 L 66.746094 63.347656 L 66.742188 63.347656 L 64.316406 60.917969 L 64.3125 60.917969 L 62.59375 59.195312 C 61.492188 58.09375 60.875 56.605469 60.875 55.046875 C 60.875 53.488281 61.492188 52 62.59375 50.898438 L 64.3125 49.179688 L 66.742188 46.746094 L 72.613281 40.878906 L 87.539062 25.953125 L 87.578125 25.917969 C 89.871094 23.660156 93.558594 23.675781 95.839844 25.953125 C 98.132812 28.246094 98.132812 31.960938 95.84375 34.253906 L 80.949219 49.144531 C 80.9375 49.15625 80.949219 49.179688 80.964844 49.179688 L 102.023438 49.179688 C 105.160156 49.179688 107.71875 51.644531 107.882812 54.742188 "/></clipPath><clipPath id="ef426b400d"><path d="M 118.257812 33.019531 L 128.6875 33.019531 L 128.6875 45.6875 L 118.257812 45.6875 Z M 118.257812 33.019531 "/></clipPath></defs><g id="f294312697"><g clip-rule="nonzero" clip-path="url(#8c99c93d7e)"><g clip-rule="nonzero" clip-path="url(#3fe5063d8e)"><path style=" stroke:none;fill-rule:nonzero;fill:#ffffff;fill-opacity:1;" d="M 0.636719 0 L 267.371094 0 L 267.371094 112.308594 L 0.636719 112.308594 Z M 0.636719 0 "/></g></g><g clip-rule="nonzero" clip-path="url(#c6761093ae)"><g clip-rule="nonzero" clip-path="url(#4a00ded6bf)"><path style="fill:none;stroke-width:20;stroke-linecap:butt;stroke-linejoin:miter;stroke:url(#62a0c032fc);stroke-miterlimit:4;" d="M 23.000038 -0.00000133333 L 334.775187 -0.00000133333 C 340.877837 -0.00000133333 346.728831 2.422184 351.038435 6.73703 C 355.353281 11.051876 357.775466 16.897628 357.775466 23.000278 L 357.775466 127.736218 C 357.775466 133.833625 355.353281 139.684619 351.038435 143.999465 C 346.728831 148.309068 340.877837 150.736497 334.775187 150.736497 L 23.000038 150.736497 C 16.897388 150.736497 11.051636 148.309068 6.73679 143.999465 C 2.421944 139.684619 -0.000241354 133.833625 -0.000241354 127.736218 L -0.000241354 23.000278 C -0.000241354 16.897628 2.421944 11.051876 6.73679 6.73703 C 11.051636 2.422184 16.897388 -0.00000133333 23.000038 -0.00000133333 Z M 23.000038 -0.00000133333 " transform="matrix(0.745066,0,0,0.745066,0.636899,0.000000993421)"/></g></g><g clip-rule="nonzero" clip-path="url(#f8dfb938e1)"><g clip-rule="nonzero" clip-path="url(#04734c0fd5)"><path style=" stroke:none;fill-rule:nonzero;fill:#191825;fill-opacity:1;" d="M 25.574219 49.179688 L 49.140625 49.179688 L 49.140625 60.917969 L 25.574219 60.917969 Z M 25.574219 49.179688 "/></g></g><g clip-rule="nonzero" clip-path="url(#1268bf6c1d)"><g clip-rule="nonzero" clip-path="url(#52054ffe50)"><path style=" stroke:none;fill-rule:nonzero;fill:#9aadf6;fill-opacity:1;" d="M 35.355469 23.660156 L 49.136719 23.660156 L 49.136719 45.730469 L 35.355469 45.730469 Z M 35.355469 23.660156 "/></g></g><g clip-rule="nonzero" clip-path="url(#f83479094a)"><g clip-rule="nonzero" clip-path="url(#eb43334a30)"><path style=" stroke:none;fill-rule:nonzero;fill:#fae16e;fill-opacity:1;" d="M 35.355469 64.355469 L 49.136719 64.355469 L 49.136719 86.421875 L 35.355469 86.421875 Z M 35.355469 64.355469 "/></g></g><g clip-rule="nonzero" clip-path="url(#a11eb11b4e)"><g clip-rule="nonzero" clip-path="url(#cf7de097c1)"><path style=" stroke:none;fill-rule:nonzero;fill:#f2adda;fill-opacity:1;" d="M 60.050781 13.054688 L 108.882812 13.054688 L 108.882812 97.066406 L 60.050781 97.066406 Z M 60.050781 13.054688 "/></g></g><g clip-rule="nonzero" clip-path="url(#b0908e0024)"><g clip-rule="nonzero" clip-path="url(#5f7063af33)"><path style=" stroke:none;fill-rule:nonzero;fill:#b0d4d2;fill-opacity:1;" d="M 60.050781 13.054688 L 108.882812 13.054688 L 108.882812 97.066406 L 60.050781 97.066406 Z M 60.050781 13.054688 "/></g></g><g clip-rule="nonzero" clip-path="url(#fa7938cf00)"><g clip-rule="nonzero" clip-path="url(#1efb86425a)"><path style=" stroke:none;fill-rule:nonzero;fill:#191825;fill-opacity:1;" d="M 60.050781 13.054688 L 108.882812 13.054688 L 108.882812 97.066406 L 60.050781 97.066406 Z M 60.050781 13.054688 "/></g></g><g clip-rule="nonzero" clip-path="url(#ef426b400d)"><path style=" stroke:none;fill-rule:nonzero;fill:#000000;fill-opacity:1;" d="M 128.355469 37.335938 C 128.28125 37.394531 126.96875 38.125 126.96875 39.75 C 126.96875 41.628906 128.640625 42.292969 128.691406 42.3125 C 128.683594 42.351562 128.425781 43.222656 127.808594 44.109375 C 127.261719 44.890625 126.6875 45.667969 125.816406 45.667969 C 124.945312 45.667969 124.722656 45.167969 123.714844 45.167969 C 122.734375 45.167969 122.386719 45.683594 121.589844 45.683594 C 120.792969 45.683594 120.238281 44.960938 119.597656 44.074219 C 118.855469 43.035156 118.257812 41.417969 118.257812 39.882812 C 118.257812 37.417969 119.878906 36.113281 121.472656 36.113281 C 122.320312 36.113281 123.023438 36.664062 123.558594 36.664062 C 124.0625 36.664062 124.851562 36.082031 125.816406 36.082031 C 126.179688 36.082031 127.492188 36.113281 128.355469 37.335938 Z M 125.359375 35.039062 C 125.757812 34.570312 126.039062 33.921875 126.039062 33.273438 C 126.039062 33.183594 126.03125 33.09375 126.015625 33.019531 C 125.367188 33.042969 124.59375 33.445312 124.128906 33.980469 C 123.765625 34.390625 123.421875 35.039062 123.421875 35.695312 C 123.421875 35.792969 123.441406 35.894531 123.449219 35.925781 C 123.488281 35.933594 123.554688 35.941406 123.621094 35.941406 C 124.203125 35.941406 124.9375 35.554688 125.359375 35.039062 Z M 125.359375 35.039062 "/></g><g style="fill:#191825;fill-opacity:1;"><g transform="translate(116.207977, 72.184048)"><path style="stroke:none" d="M 6.53125 -35.234375 C 7.738281 -35.234375 8.707031 -34.890625 9.4375 -34.203125 C 10.164062 -33.523438 10.53125 -32.613281 10.53125 -31.46875 C 10.53125 -30.289062 10.164062 -29.359375 9.4375 -28.671875 C 8.707031 -27.992188 7.738281 -27.65625 6.53125 -27.65625 C 5.351562 -27.65625 4.398438 -27.992188 3.671875 -28.671875 C 2.941406 -29.359375 2.578125 -30.289062 2.578125 -31.46875 C 2.578125 -32.613281 2.941406 -33.523438 3.671875 -34.203125 C 4.398438 -34.890625 5.351562 -35.234375 6.53125 -35.234375 Z M 10.296875 0 L 2.8125 0 L 2.8125 -25.421875 L 10.296875 -25.421875 Z M 10.296875 0 "/></g></g><g style="fill:#191825;fill-opacity:1;"><g transform="translate(129.368796, 72.184048)"><path style="stroke:none" d="M 40.484375 -32.90625 L 40.484375 0 L 33 0 L 33 -14.59375 C 33 -16.1875 33.003906 -17.984375 33.015625 -19.984375 C 33.035156 -21.984375 33.0625 -23.828125 33.09375 -25.515625 C 32.78125 -23.828125 32.367188 -21.988281 31.859375 -20 C 31.347656 -18.019531 30.851562 -16.234375 30.375 -14.640625 L 26.234375 0 L 18.3125 0 L 14.0625 -14.640625 C 13.625 -16.234375 13.15625 -18.015625 12.65625 -19.984375 C 12.164062 -21.953125 11.757812 -23.78125 11.4375 -25.46875 C 11.507812 -23.78125 11.546875 -21.941406 11.546875 -19.953125 C 11.546875 -17.972656 11.546875 -16.1875 11.546875 -14.59375 L 11.546875 0 L 4.046875 0 L 4.046875 -32.90625 L 15.78125 -32.90625 L 22.40625 -7.109375 L 29.046875 -32.90625 Z M 40.484375 -32.90625 "/></g></g><g style="fill:#191825;fill-opacity:1;"><g transform="translate(172.713669, 72.184048)"><path style="stroke:none" d="M 17.640625 0 L 17.125 -3.71875 L 15.96875 -1 C 15.082031 -0.425781 14.101562 -0.00390625 13.03125 0.265625 C 11.96875 0.535156 10.851562 0.671875 9.6875 0.671875 C 8.25 0.671875 6.910156 0.382812 5.671875 -0.1875 C 4.429688 -0.757812 3.429688 -1.601562 2.671875 -2.71875 C 1.910156 -3.832031 1.53125 -5.179688 1.53125 -6.765625 C 1.53125 -9.535156 2.71875 -11.691406 5.09375 -13.234375 C 7.476562 -14.773438 10.914062 -15.546875 15.40625 -15.546875 L 17.03125 -15.546875 L 17.03125 -15.96875 C 17.03125 -16.320312 17.03125 -16.671875 17.03125 -17.015625 C 17.03125 -17.367188 16.992188 -17.753906 16.921875 -18.171875 C 16.859375 -18.929688 16.53125 -19.582031 15.9375 -20.125 C 15.351562 -20.664062 14.507812 -20.9375 13.40625 -20.9375 C 12.226562 -20.9375 11.320312 -20.59375 10.6875 -19.90625 C 10.050781 -19.226562 9.679688 -18.253906 9.578125 -16.984375 L 2.4375 -16.984375 C 2.5 -18.921875 3.03125 -20.5625 4.03125 -21.90625 C 5.03125 -23.257812 6.375 -24.289062 8.0625 -25 C 9.75 -25.71875 11.625 -26.078125 13.6875 -26.078125 C 16.195312 -26.078125 18.207031 -25.742188 19.71875 -25.078125 C 21.226562 -24.410156 22.335938 -23.488281 23.046875 -22.3125 C 23.765625 -21.132812 24.191406 -19.785156 24.328125 -18.265625 C 24.421875 -17.085938 24.46875 -15.71875 24.46875 -14.15625 L 24.46875 -6.4375 C 24.46875 -5.476562 24.5 -4.515625 24.5625 -3.546875 C 24.625 -2.578125 24.75 -1.394531 24.9375 0 Z M 12.640625 -4.484375 C 13.753906 -4.484375 14.765625 -4.890625 15.671875 -5.703125 C 16.578125 -6.515625 17.03125 -7.695312 17.03125 -9.25 L 17.03125 -11.109375 C 14.707031 -11.296875 12.820312 -11.097656 11.375 -10.515625 C 9.925781 -9.929688 9.203125 -8.890625 9.203125 -7.390625 C 9.203125 -6.441406 9.519531 -5.71875 10.15625 -5.21875 C 10.789062 -4.726562 11.617188 -4.484375 12.640625 -4.484375 Z M 12.640625 -4.484375 "/></g></g><g style="fill:#191825;fill-opacity:1;"><g transform="translate(200.036672, 72.184048)"><path style="stroke:none" d="M 16.828125 -26.078125 C 17.242188 -26.078125 17.59375 -26.0625 17.875 -26.03125 C 18.164062 -26 18.453125 -25.953125 18.734375 -25.890625 L 18.734375 -19.84375 C 15.785156 -20.03125 13.640625 -19.4375 12.296875 -18.0625 C 10.960938 -16.695312 10.296875 -14.222656 10.296875 -10.640625 L 10.296875 0 L 2.8125 0 L 2.8125 -25.421875 L 10.296875 -25.421875 L 10.296875 -20.546875 L 12.203125 -24.078125 C 12.835938 -24.742188 13.582031 -25.242188 14.4375 -25.578125 C 15.300781 -25.910156 16.097656 -26.078125 16.828125 -26.078125 Z M 16.828125 -26.078125 "/></g></g><g style="fill:#191825;fill-opacity:1;"><g transform="translate(219.014952, 72.184048)"><path style="stroke:none" d="M 11.78125 -20.453125 L 11.78125 -9.78125 C 11.78125 -9.363281 11.78125 -8.945312 11.78125 -8.53125 C 11.78125 -8.125 11.796875 -7.742188 11.828125 -7.390625 C 11.921875 -6.117188 12.273438 -5.289062 12.890625 -4.90625 C 13.515625 -4.53125 14.78125 -4.40625 16.6875 -4.53125 L 16.6875 0.234375 C 15.925781 0.359375 15.171875 0.453125 14.421875 0.515625 C 13.679688 0.585938 12.894531 0.625 12.0625 0.625 C 9.269531 0.625 7.332031 0.164062 6.25 -0.75 C 5.164062 -1.675781 4.546875 -3.0625 4.390625 -4.90625 C 4.359375 -5.539062 4.332031 -6.164062 4.3125 -6.78125 C 4.300781 -7.40625 4.296875 -8.070312 4.296875 -8.78125 L 4.296875 -20.453125 L 0.421875 -20.453125 L 0.421875 -25.234375 L 4.296875 -25.234375 L 4.296875 -31.609375 L 11.78125 -31.609375 L 11.78125 -25.234375 L 17.171875 -25.234375 L 17.171875 -20.453125 Z M 11.78125 -20.453125 "/></g></g></g></svg>