<svg xmlns="http://www.w3.org/2000/svg" xmlns:xlink="http://www.w3.org/1999/xlink" width="201" zoomAndPan="magnify" viewBox="0 0 150.75 63.749997" height="85" preserveAspectRatio="xMidYMid meet" version="1.2"><defs><clipPath id="17ee39d1c1"><path d="M 0.171875 0 L 149.792969 0 L 149.792969 63 L 0.171875 63 Z M 0.171875 0 "/></clipPath><clipPath id="3d3cbf1410"><path d="M 17.351562 0 L 132.519531 0 C 142.007812 0 149.703125 7.691406 149.703125 17.183594 L 149.703125 45.816406 C 149.703125 55.308594 142.007812 63 132.519531 63 L 17.351562 63 C 7.863281 63 0.171875 55.308594 0.171875 45.816406 L 0.171875 17.183594 C 0.171875 7.691406 7.863281 0 17.351562 0 Z M 17.351562 0 "/></clipPath><clipPath id="f83e123310"><path d="M 0.171875 0 L 149.457031 0 L 149.457031 62.753906 L 0.171875 62.753906 Z M 0.171875 0 "/></clipPath><clipPath id="f387c6cd43"><path d="M 17.285156 0 L 132.003906 0 C 141.457031 0 149.117188 7.664062 149.117188 17.117188 L 149.117188 45.636719 C 149.117188 55.089844 141.457031 62.753906 132.003906 62.753906 L 17.285156 62.753906 C 7.832031 62.753906 0.171875 55.089844 0.171875 45.636719 L 0.171875 17.117188 C 0.171875 7.664062 7.832031 0 17.285156 0 Z M 17.285156 0 "/></clipPath><linearGradient x1="0" gradientTransform="matrix(1.311166,0,0,1.311166,0,0.00000428625)" y1="32.158001" x2="152.655138" gradientUnits="userSpaceOnUse" y2="32.158001" id="9cd8e4ac9f"><stop style="stop-color:#9aadf9;stop-opacity:1;" offset="0"/><stop style="stop-color:#9aadf9;stop-opacity:1;" offset="0.0078125"/><stop style="stop-color:#9baef8;stop-opacity:1;" offset="0.015625"/><stop style="stop-color:#9baef7;stop-opacity:1;" offset="0.0234375"/><stop style="stop-color:#9baff7;stop-opacity:1;" offset="0.03125"/><stop style="stop-color:#9cb0f6;stop-opacity:1;" offset="0.0390625"/><stop style="stop-color:#9cb0f6;stop-opacity:1;" offset="0.046875"/><stop style="stop-color:#9cb1f5;stop-opacity:1;" offset="0.0546875"/><stop style="stop-color:#9db1f4;stop-opacity:1;" offset="0.0625"/><stop style="stop-color:#9db2f4;stop-opacity:1;" offset="0.0703125"/><stop style="stop-color:#9db3f3;stop-opacity:1;" offset="0.078125"/><stop style="stop-color:#9eb3f3;stop-opacity:1;" offset="0.0859375"/><stop style="stop-color:#9eb4f2;stop-opacity:1;" offset="0.09375"/><stop style="stop-color:#9eb5f1;stop-opacity:1;" offset="0.101562"/><stop style="stop-color:#9fb5f1;stop-opacity:1;" offset="0.109375"/><stop style="stop-color:#9fb6f0;stop-opacity:1;" offset="0.117188"/><stop style="stop-color:#9fb6ef;stop-opacity:1;" offset="0.125"/><stop style="stop-color:#a0b7ef;stop-opacity:1;" offset="0.132812"/><stop style="stop-color:#a0b8ee;stop-opacity:1;" offset="0.140625"/><stop style="stop-color:#a0b8ee;stop-opacity:1;" offset="0.148437"/><stop style="stop-color:#a1b9ed;stop-opacity:1;" offset="0.15625"/><stop style="stop-color:#a1b9ec;stop-opacity:1;" offset="0.164063"/><stop style="stop-color:#a1baec;stop-opacity:1;" offset="0.171875"/><stop style="stop-color:#a2bbeb;stop-opacity:1;" offset="0.179688"/><stop style="stop-color:#a2bbeb;stop-opacity:1;" offset="0.1875"/><stop style="stop-color:#a2bcea;stop-opacity:1;" offset="0.195312"/><stop style="stop-color:#a3bce9;stop-opacity:1;" offset="0.203125"/><stop style="stop-color:#a3bde9;stop-opacity:1;" offset="0.210937"/><stop style="stop-color:#a3bee8;stop-opacity:1;" offset="0.21875"/><stop style="stop-color:#a4bee8;stop-opacity:1;" offset="0.226563"/><stop style="stop-color:#a4bfe7;stop-opacity:1;" offset="0.234375"/><stop style="stop-color:#a4bfe6;stop-opacity:1;" offset="0.242188"/><stop style="stop-color:#a5c0e6;stop-opacity:1;" offset="0.25"/><stop style="stop-color:#a5c1e5;stop-opacity:1;" offset="0.257812"/><stop style="stop-color:#a5c1e5;stop-opacity:1;" offset="0.265625"/><stop style="stop-color:#a6c2e4;stop-opacity:1;" offset="0.273438"/><stop style="stop-color:#a6c3e3;stop-opacity:1;" offset="0.28125"/><stop style="stop-color:#a7c3e3;stop-opacity:1;" offset="0.289062"/><stop style="stop-color:#a7c4e2;stop-opacity:1;" offset="0.296875"/><stop style="stop-color:#a7c4e2;stop-opacity:1;" offset="0.304687"/><stop style="stop-color:#a8c5e1;stop-opacity:1;" offset="0.3125"/><stop style="stop-color:#a8c6e0;stop-opacity:1;" offset="0.320313"/><stop style="stop-color:#a8c6e0;stop-opacity:1;" offset="0.328125"/><stop style="stop-color:#a9c7df;stop-opacity:1;" offset="0.335938"/><stop style="stop-color:#a9c7df;stop-opacity:1;" offset="0.34375"/><stop style="stop-color:#a9c8de;stop-opacity:1;" offset="0.351562"/><stop style="stop-color:#aac9dd;stop-opacity:1;" offset="0.359375"/><stop style="stop-color:#aac9dd;stop-opacity:1;" offset="0.367188"/><stop style="stop-color:#aacadc;stop-opacity:1;" offset="0.375"/><stop style="stop-color:#abcadc;stop-opacity:1;" offset="0.382812"/><stop style="stop-color:#abcbdb;stop-opacity:1;" offset="0.390625"/><stop style="stop-color:#abccda;stop-opacity:1;" offset="0.398438"/><stop style="stop-color:#acccda;stop-opacity:1;" offset="0.40625"/><stop style="stop-color:#accdd9;stop-opacity:1;" offset="0.414062"/><stop style="stop-color:#acced8;stop-opacity:1;" offset="0.421875"/><stop style="stop-color:#adced8;stop-opacity:1;" offset="0.429687"/><stop style="stop-color:#adcfd7;stop-opacity:1;" offset="0.4375"/><stop style="stop-color:#adcfd7;stop-opacity:1;" offset="0.445313"/><stop style="stop-color:#aed0d6;stop-opacity:1;" offset="0.453125"/><stop style="stop-color:#aed1d5;stop-opacity:1;" offset="0.460938"/><stop style="stop-color:#aed1d5;stop-opacity:1;" offset="0.46875"/><stop style="stop-color:#afd2d4;stop-opacity:1;" offset="0.476562"/><stop style="stop-color:#afd2d4;stop-opacity:1;" offset="0.484375"/><stop style="stop-color:#afd3d3;stop-opacity:1;" offset="0.492188"/><stop style="stop-color:#b0d4d2;stop-opacity:1;" offset="0.5"/><stop style="stop-color:#b0d4d2;stop-opacity:1;" offset="0.503906"/><stop style="stop-color:#b1d3d2;stop-opacity:1;" offset="0.507812"/><stop style="stop-color:#b1d3d2;stop-opacity:1;" offset="0.511719"/><stop style="stop-color:#b2d3d2;stop-opacity:1;" offset="0.515625"/><stop style="stop-color:#b3d2d2;stop-opacity:1;" offset="0.519531"/><stop style="stop-color:#b3d2d2;stop-opacity:1;" offset="0.523438"/><stop style="stop-color:#b4d2d3;stop-opacity:1;" offset="0.527344"/><stop style="stop-color:#b4d1d3;stop-opacity:1;" offset="0.53125"/><stop style="stop-color:#b5d1d3;stop-opacity:1;" offset="0.535156"/><stop style="stop-color:#b5d1d3;stop-opacity:1;" offset="0.539062"/><stop style="stop-color:#b6d1d3;stop-opacity:1;" offset="0.542969"/><stop style="stop-color:#b6d0d3;stop-opacity:1;" offset="0.546875"/><stop style="stop-color:#b7d0d3;stop-opacity:1;" offset="0.550781"/><stop style="stop-color:#b7d0d3;stop-opacity:1;" offset="0.554688"/><stop style="stop-color:#b8cfd3;stop-opacity:1;" offset="0.558594"/><stop style="stop-color:#b8cfd3;stop-opacity:1;" offset="0.5625"/><stop style="stop-color:#b9cfd3;stop-opacity:1;" offset="0.566406"/><stop style="stop-color:#b9ced3;stop-opacity:1;" offset="0.570312"/><stop style="stop-color:#baced3;stop-opacity:1;" offset="0.574219"/><stop style="stop-color:#baced3;stop-opacity:1;" offset="0.578125"/><stop style="stop-color:#bbced3;stop-opacity:1;" offset="0.582031"/><stop style="stop-color:#bbcdd3;stop-opacity:1;" offset="0.585937"/><stop style="stop-color:#bccdd4;stop-opacity:1;" offset="0.589844"/><stop style="stop-color:#bccdd4;stop-opacity:1;" offset="0.59375"/><stop style="stop-color:#bdccd4;stop-opacity:1;" offset="0.597656"/><stop style="stop-color:#bdccd4;stop-opacity:1;" offset="0.601562"/><stop style="stop-color:#beccd4;stop-opacity:1;" offset="0.605469"/><stop style="stop-color:#becbd4;stop-opacity:1;" offset="0.609375"/><stop style="stop-color:#bfcbd4;stop-opacity:1;" offset="0.613281"/><stop style="stop-color:#bfcbd4;stop-opacity:1;" offset="0.617187"/><stop style="stop-color:#c0cad4;stop-opacity:1;" offset="0.621094"/><stop style="stop-color:#c0cad4;stop-opacity:1;" offset="0.625"/><stop style="stop-color:#c1cad4;stop-opacity:1;" offset="0.628906"/><stop style="stop-color:#c1cad4;stop-opacity:1;" offset="0.632813"/><stop style="stop-color:#c2c9d4;stop-opacity:1;" offset="0.636719"/><stop style="stop-color:#c3c9d4;stop-opacity:1;" offset="0.640625"/><stop style="stop-color:#c3c9d4;stop-opacity:1;" offset="0.644531"/><stop style="stop-color:#c4c8d4;stop-opacity:1;" offset="0.648438"/><stop style="stop-color:#c4c8d5;stop-opacity:1;" offset="0.652344"/><stop style="stop-color:#c5c8d5;stop-opacity:1;" offset="0.65625"/><stop style="stop-color:#c5c7d5;stop-opacity:1;" offset="0.660156"/><stop style="stop-color:#c6c7d5;stop-opacity:1;" offset="0.664063"/><stop style="stop-color:#c6c7d5;stop-opacity:1;" offset="0.667969"/><stop style="stop-color:#c7c6d5;stop-opacity:1;" offset="0.671875"/><stop style="stop-color:#c7c6d5;stop-opacity:1;" offset="0.675781"/><stop style="stop-color:#c8c6d5;stop-opacity:1;" offset="0.679688"/><stop style="stop-color:#c8c6d5;stop-opacity:1;" offset="0.683594"/><stop style="stop-color:#c9c5d5;stop-opacity:1;" offset="0.6875"/><stop style="stop-color:#c9c5d5;stop-opacity:1;" offset="0.691406"/><stop style="stop-color:#cac5d5;stop-opacity:1;" offset="0.695312"/><stop style="stop-color:#cac4d5;stop-opacity:1;" offset="0.699219"/><stop style="stop-color:#cbc4d5;stop-opacity:1;" offset="0.703125"/><stop style="stop-color:#cbc4d5;stop-opacity:1;" offset="0.707031"/><stop style="stop-color:#ccc3d5;stop-opacity:1;" offset="0.710938"/><stop style="stop-color:#ccc3d6;stop-opacity:1;" offset="0.714844"/><stop style="stop-color:#cdc3d6;stop-opacity:1;" offset="0.71875"/><stop style="stop-color:#cdc3d6;stop-opacity:1;" offset="0.722656"/><stop style="stop-color:#cec2d6;stop-opacity:1;" offset="0.726562"/><stop style="stop-color:#cec2d6;stop-opacity:1;" offset="0.730469"/><stop style="stop-color:#cfc2d6;stop-opacity:1;" offset="0.734375"/><stop style="stop-color:#cfc1d6;stop-opacity:1;" offset="0.738281"/><stop style="stop-color:#d0c1d6;stop-opacity:1;" offset="0.742188"/><stop style="stop-color:#d0c1d6;stop-opacity:1;" offset="0.746094"/><stop style="stop-color:#d1c0d6;stop-opacity:1;" offset="0.75"/><stop style="stop-color:#d1c0d6;stop-opacity:1;" offset="0.753906"/><stop style="stop-color:#d2c0d6;stop-opacity:1;" offset="0.757812"/><stop style="stop-color:#d3bfd6;stop-opacity:1;" offset="0.761719"/><stop style="stop-color:#d3bfd6;stop-opacity:1;" offset="0.765625"/><stop style="stop-color:#d4bfd6;stop-opacity:1;" offset="0.769531"/><stop style="stop-color:#d4bfd6;stop-opacity:1;" offset="0.773438"/><stop style="stop-color:#d5bed7;stop-opacity:1;" offset="0.777344"/><stop style="stop-color:#d5bed7;stop-opacity:1;" offset="0.78125"/><stop style="stop-color:#d6bed7;stop-opacity:1;" offset="0.785156"/><stop style="stop-color:#d6bdd7;stop-opacity:1;" offset="0.789062"/><stop style="stop-color:#d7bdd7;stop-opacity:1;" offset="0.792969"/><stop style="stop-color:#d7bdd7;stop-opacity:1;" offset="0.796875"/><stop style="stop-color:#d8bcd7;stop-opacity:1;" offset="0.800781"/><stop style="stop-color:#d8bcd7;stop-opacity:1;" offset="0.804688"/><stop style="stop-color:#d9bcd7;stop-opacity:1;" offset="0.808594"/><stop style="stop-color:#d9bcd7;stop-opacity:1;" offset="0.8125"/><stop style="stop-color:#dabbd7;stop-opacity:1;" offset="0.816406"/><stop style="stop-color:#dabbd7;stop-opacity:1;" offset="0.820312"/><stop style="stop-color:#dbbbd7;stop-opacity:1;" offset="0.824219"/><stop style="stop-color:#dbbad7;stop-opacity:1;" offset="0.828125"/><stop style="stop-color:#dcbad7;stop-opacity:1;" offset="0.832031"/><stop style="stop-color:#dcbad7;stop-opacity:1;" offset="0.835937"/><stop style="stop-color:#ddb9d7;stop-opacity:1;" offset="0.839844"/><stop style="stop-color:#ddb9d8;stop-opacity:1;" offset="0.84375"/><stop style="stop-color:#deb9d8;stop-opacity:1;" offset="0.847656"/><stop style="stop-color:#deb8d8;stop-opacity:1;" offset="0.851562"/><stop style="stop-color:#dfb8d8;stop-opacity:1;" offset="0.855469"/><stop style="stop-color:#dfb8d8;stop-opacity:1;" offset="0.859375"/><stop style="stop-color:#e0b8d8;stop-opacity:1;" offset="0.863281"/><stop style="stop-color:#e0b7d8;stop-opacity:1;" offset="0.867187"/><stop style="stop-color:#e1b7d8;stop-opacity:1;" offset="0.871094"/><stop style="stop-color:#e1b7d8;stop-opacity:1;" offset="0.875"/><stop style="stop-color:#e2b6d8;stop-opacity:1;" offset="0.878906"/><stop style="stop-color:#e3b6d8;stop-opacity:1;" offset="0.882813"/><stop style="stop-color:#e3b6d8;stop-opacity:1;" offset="0.886719"/><stop style="stop-color:#e4b5d8;stop-opacity:1;" offset="0.890625"/><stop style="stop-color:#e4b5d8;stop-opacity:1;" offset="0.894531"/><stop style="stop-color:#e5b5d8;stop-opacity:1;" offset="0.898438"/><stop style="stop-color:#e5b5d8;stop-opacity:1;" offset="0.902344"/><stop style="stop-color:#e6b4d9;stop-opacity:1;" offset="0.90625"/><stop style="stop-color:#e6b4d9;stop-opacity:1;" offset="0.910156"/><stop style="stop-color:#e7b4d9;stop-opacity:1;" offset="0.914063"/><stop style="stop-color:#e7b3d9;stop-opacity:1;" offset="0.917969"/><stop style="stop-color:#e8b3d9;stop-opacity:1;" offset="0.921875"/><stop style="stop-color:#e8b3d9;stop-opacity:1;" offset="0.925781"/><stop style="stop-color:#e9b2d9;stop-opacity:1;" offset="0.929688"/><stop style="stop-color:#e9b2d9;stop-opacity:1;" offset="0.933594"/><stop style="stop-color:#eab2d9;stop-opacity:1;" offset="0.9375"/><stop style="stop-color:#eab1d9;stop-opacity:1;" offset="0.941406"/><stop style="stop-color:#ebb1d9;stop-opacity:1;" offset="0.945312"/><stop style="stop-color:#ebb1d9;stop-opacity:1;" offset="0.949219"/><stop style="stop-color:#ecb1d9;stop-opacity:1;" offset="0.953125"/><stop style="stop-color:#ecb0d9;stop-opacity:1;" offset="0.957031"/><stop style="stop-color:#edb0d9;stop-opacity:1;" offset="0.960938"/><stop style="stop-color:#edb0d9;stop-opacity:1;" offset="0.964844"/><stop style="stop-color:#eeafda;stop-opacity:1;" offset="0.96875"/><stop style="stop-color:#eeafda;stop-opacity:1;" offset="0.972656"/><stop style="stop-color:#efafda;stop-opacity:1;" offset="0.976562"/><stop style="stop-color:#efaeda;stop-opacity:1;" offset="0.980469"/><stop style="stop-color:#f0aeda;stop-opacity:1;" offset="0.984375"/><stop style="stop-color:#f0aeda;stop-opacity:1;" offset="0.988281"/><stop style="stop-color:#f1adda;stop-opacity:1;" offset="0.992188"/><stop style="stop-color:#f1adda;stop-opacity:1;" offset="0.996094"/><stop style="stop-color:#f2adda;stop-opacity:1;" offset="1"/></linearGradient><clipPath id="93ebc5407c"><path d="M 14.160156 27.585938 L 27.378906 27.585938 L 27.378906 34.195312 L 14.160156 34.195312 Z M 14.160156 27.585938 "/></clipPath><clipPath id="26d86b4552"><path d="M 27.378906 30.878906 C 27.378906 32.695312 25.902344 34.171875 24.085938 34.171875 L 17.507812 34.171875 C 15.691406 34.171875 14.1875 32.71875 14.171875 30.902344 C 14.160156 29.074219 15.636719 27.585938 17.464844 27.585938 L 24.085938 27.585938 C 25.902344 27.585938 27.378906 29.0625 27.378906 30.878906 "/></clipPath><clipPath id="ed89313bd0"><path d="M 19.949219 13.574219 L 27.375 13.574219 L 27.375 25.679688 L 19.949219 25.679688 Z M 19.949219 13.574219 "/></clipPath><clipPath id="f1fa55a0cb"><path d="M 27.375 18.875 L 27.375 25.65625 L 20.933594 19.214844 C 19.648438 17.925781 19.648438 15.84375 20.933594 14.558594 C 22.21875 13.273438 24.304688 13.273438 25.589844 14.558594 C 26.734375 15.703125 27.375 17.253906 27.375 18.875 "/></clipPath><clipPath id="c6b7598602"><path d="M 19.949219 36.097656 L 27.375 36.097656 L 27.375 48.175781 L 19.949219 48.175781 Z M 19.949219 36.097656 "/></clipPath><clipPath id="e64adb1f00"><path d="M 27.375 36.097656 L 27.375 42.882812 C 27.375 44.5 26.734375 46.054688 25.589844 47.199219 C 24.304688 48.484375 22.21875 48.484375 20.933594 47.199219 C 19.644531 45.910156 19.648438 43.828125 20.933594 42.542969 Z M 27.375 36.097656 "/></clipPath><clipPath id="60c96b5c60"><path d="M 33.960938 7.785156 L 40.601562 7.785156 L 40.601562 20.234375 L 33.960938 20.234375 Z M 33.960938 7.785156 "/></clipPath><clipPath id="d3783c1534"><path d="M 40.546875 11.132812 C 40.546875 12.722656 39.914062 14.25 38.785156 15.378906 L 33.960938 20.203125 L 33.960938 11.089844 C 33.960938 9.261719 35.449219 7.785156 37.277344 7.796875 C 39.09375 7.8125 40.546875 9.316406 40.546875 11.132812 "/></clipPath><clipPath id="9a4151dc29"><path d="M 33.960938 41.535156 L 40.601562 41.535156 L 40.601562 53.988281 L 33.960938 53.988281 Z M 33.960938 41.535156 "/></clipPath><clipPath id="085423d5ba"><path d="M 38.757812 46.347656 C 39.902344 47.492188 40.546875 49.046875 40.546875 50.667969 C 40.546875 52.359375 39.269531 53.753906 37.625 53.9375 C 37.625 53.9375 37.625 53.9375 37.621094 53.9375 C 37.5 53.941406 37.375 53.941406 37.253906 53.941406 C 37.128906 53.941406 37.007812 53.941406 36.882812 53.9375 C 35.238281 53.753906 33.960938 52.359375 33.960938 50.667969 L 33.960938 41.550781 Z M 38.757812 46.347656 "/></clipPath><clipPath id="08f9890837"><path d="M 33.960938 13.59375 L 60.335938 13.59375 L 60.335938 48.175781 L 33.960938 48.175781 Z M 33.960938 13.59375 "/></clipPath><clipPath id="a9bf830b85"><path d="M 60.328125 30.703125 C 60.429688 32.597656 58.882812 34.171875 56.984375 34.171875 L 45.230469 34.171875 C 45.21875 34.171875 45.214844 34.183594 45.222656 34.191406 L 53.574219 42.542969 C 54.859375 43.828125 54.859375 45.914062 53.574219 47.199219 C 52.292969 48.476562 50.226562 48.484375 48.9375 47.21875 C 48.929688 47.210938 48.925781 47.207031 48.917969 47.199219 C 48.910156 47.191406 48.902344 47.183594 48.898438 47.179688 L 40.546875 38.828125 L 40.546875 38.824219 L 37.253906 35.535156 L 34.925781 33.207031 C 34.308594 32.589844 33.960938 31.75 33.960938 30.878906 C 33.960938 30.003906 34.308594 29.167969 34.925781 28.550781 L 48.917969 14.558594 L 48.941406 14.539062 C 50.226562 13.273438 52.296875 13.28125 53.574219 14.558594 C 54.859375 15.84375 54.859375 17.929688 53.574219 19.214844 L 45.222656 27.566406 C 45.214844 27.574219 45.222656 27.585938 45.230469 27.585938 L 57.042969 27.585938 C 58.800781 27.585938 60.238281 28.96875 60.328125 30.707031 "/></clipPath><clipPath id="9e64190a79"><path d="M 66.148438 18.523438 L 72.125 18.523438 L 72.125 25.992188 L 66.148438 25.992188 Z M 66.148438 18.523438 "/></clipPath></defs><g id="131a7b65ba"><g clip-rule="nonzero" clip-path="url(#17ee39d1c1)"><g clip-rule="nonzero" clip-path="url(#3d3cbf1410)"><path style=" stroke:none;fill-rule:nonzero;fill:#ffffff;fill-opacity:1;" d="M 0.171875 0 L 149.792969 0 L 149.792969 63 L 0.171875 63 Z M 0.171875 0 "/></g></g><g clip-rule="nonzero" clip-path="url(#f83e123310)"><g clip-rule="nonzero" clip-path="url(#f387c6cd43)"><path style="fill:none;stroke-width:20;stroke-linecap:butt;stroke-linejoin:miter;stroke:url(#9cd8e4ac9f);stroke-miterlimit:4;" d="M 22.999295 -0.000188464 L 177.157328 -0.000188464 C 189.860353 -0.000188464 200.154003 10.29871 200.154003 23.001735 L 200.154003 61.326027 C 200.154003 74.029052 189.860353 84.327951 177.157328 84.327951 L 22.999295 84.327951 C 10.29627 84.327951 0.00261984 74.029052 0.00261984 61.326027 L 0.00261984 23.001735 C 0.00261984 10.29871 10.29627 -0.000188464 22.999295 -0.000188464 Z M 22.999295 -0.000188464 " transform="matrix(0.744163,0,0,0.744163,0.169925,0.000140248)"/></g></g><g clip-rule="nonzero" clip-path="url(#93ebc5407c)"><g clip-rule="nonzero" clip-path="url(#26d86b4552)"><path style=" stroke:none;fill-rule:nonzero;fill:#191825;fill-opacity:1;" d="M 14.160156 27.585938 L 27.378906 27.585938 L 27.378906 34.171875 L 14.160156 34.171875 Z M 14.160156 27.585938 "/></g></g><g clip-rule="nonzero" clip-path="url(#ed89313bd0)"><g clip-rule="nonzero" clip-path="url(#f1fa55a0cb)"><path style=" stroke:none;fill-rule:nonzero;fill:#9aadf6;fill-opacity:1;" d="M 19.648438 13.273438 L 27.375 13.273438 L 27.375 25.652344 L 19.648438 25.652344 Z M 19.648438 13.273438 "/></g></g><g clip-rule="nonzero" clip-path="url(#c6b7598602)"><g clip-rule="nonzero" clip-path="url(#e64adb1f00)"><path style=" stroke:none;fill-rule:nonzero;fill:#fae16e;fill-opacity:1;" d="M 19.648438 36.097656 L 27.375 36.097656 L 27.375 48.476562 L 19.648438 48.476562 Z M 19.648438 36.097656 "/></g></g><g clip-rule="nonzero" clip-path="url(#60c96b5c60)"><g clip-rule="nonzero" clip-path="url(#d3783c1534)"><path style=" stroke:none;fill-rule:nonzero;fill:#f2adda;fill-opacity:1;" d="M 33.5 7.320312 L 60.890625 7.320312 L 60.890625 54.449219 L 33.5 54.449219 Z M 33.5 7.320312 "/></g></g><g clip-rule="nonzero" clip-path="url(#9a4151dc29)"><g clip-rule="nonzero" clip-path="url(#085423d5ba)"><path style=" stroke:none;fill-rule:nonzero;fill:#b0d4d2;fill-opacity:1;" d="M 33.5 7.320312 L 60.890625 7.320312 L 60.890625 54.449219 L 33.5 54.449219 Z M 33.5 7.320312 "/></g></g><g clip-rule="nonzero" clip-path="url(#08f9890837)"><g clip-rule="nonzero" clip-path="url(#a9bf830b85)"><path style=" stroke:none;fill-rule:nonzero;fill:#191825;fill-opacity:1;" d="M 33.5 7.320312 L 60.890625 7.320312 L 60.890625 54.449219 L 33.5 54.449219 Z M 33.5 7.320312 "/></g></g><g clip-rule="nonzero" clip-path="url(#9e64190a79)"><path style=" stroke:none;fill-rule:nonzero;fill:#000000;fill-opacity:1;" d="M 71.9375 21.070312 C 71.894531 21.101562 71.140625 21.535156 71.140625 22.492188 C 71.140625 23.601562 72.097656 23.992188 72.128906 24 C 72.121094 24.023438 71.976562 24.539062 71.621094 25.0625 C 71.308594 25.519531 70.980469 25.980469 70.480469 25.980469 C 69.980469 25.980469 69.851562 25.683594 69.277344 25.683594 C 68.714844 25.683594 68.515625 25.988281 68.058594 25.988281 C 67.601562 25.988281 67.285156 25.5625 66.917969 25.042969 C 66.492188 24.425781 66.148438 23.472656 66.148438 22.570312 C 66.148438 21.117188 67.078125 20.347656 67.992188 20.347656 C 68.476562 20.347656 68.882812 20.671875 69.1875 20.671875 C 69.476562 20.671875 69.929688 20.328125 70.480469 20.328125 C 70.691406 20.328125 71.441406 20.347656 71.9375 21.070312 Z M 70.21875 19.714844 C 70.445312 19.4375 70.609375 19.058594 70.609375 18.675781 C 70.609375 18.621094 70.605469 18.566406 70.59375 18.523438 C 70.222656 18.539062 69.78125 18.777344 69.515625 19.089844 C 69.304688 19.332031 69.109375 19.714844 69.109375 20.101562 C 69.109375 20.160156 69.121094 20.21875 69.125 20.238281 C 69.148438 20.242188 69.183594 20.246094 69.222656 20.246094 C 69.558594 20.246094 69.976562 20.019531 70.21875 19.714844 Z M 70.21875 19.714844 "/></g><g style="fill:#191825;fill-opacity:1;"><g transform="translate(64.999878, 40.491154)"><path style="stroke:none" d="M 3.671875 -19.765625 C 4.347656 -19.765625 4.890625 -19.570312 5.296875 -19.1875 C 5.703125 -18.8125 5.90625 -18.300781 5.90625 -17.65625 C 5.90625 -17 5.703125 -16.476562 5.296875 -16.09375 C 4.890625 -15.707031 4.347656 -15.515625 3.671875 -15.515625 C 3.003906 -15.515625 2.460938 -15.707031 2.046875 -16.09375 C 1.640625 -16.476562 1.4375 -17 1.4375 -17.65625 C 1.4375 -18.300781 1.640625 -18.8125 2.046875 -19.1875 C 2.460938 -19.570312 3.003906 -19.765625 3.671875 -19.765625 Z M 5.78125 0 L 1.578125 0 L 1.578125 -14.25 L 5.78125 -14.25 Z M 5.78125 0 "/></g></g><g style="fill:#191825;fill-opacity:1;"><g transform="translate(72.382351, 40.491154)"><path style="stroke:none" d="M 22.703125 -18.453125 L 22.703125 0 L 18.515625 0 L 18.515625 -8.1875 C 18.515625 -9.070312 18.515625 -10.078125 18.515625 -11.203125 C 18.523438 -12.328125 18.539062 -13.363281 18.5625 -14.3125 C 18.382812 -13.363281 18.148438 -12.332031 17.859375 -11.21875 C 17.578125 -10.101562 17.304688 -9.101562 17.046875 -8.21875 L 14.71875 0 L 10.265625 0 L 7.890625 -8.21875 C 7.640625 -9.101562 7.375 -10.097656 7.09375 -11.203125 C 6.820312 -12.304688 6.597656 -13.332031 6.421875 -14.28125 C 6.453125 -13.332031 6.46875 -12.300781 6.46875 -11.1875 C 6.46875 -10.070312 6.46875 -9.070312 6.46875 -8.1875 L 6.46875 0 L 2.28125 0 L 2.28125 -18.453125 L 8.859375 -18.453125 L 12.578125 -3.984375 L 16.296875 -18.453125 Z M 22.703125 -18.453125 "/></g></g><g style="fill:#191825;fill-opacity:1;"><g transform="translate(96.696366, 40.491154)"><path style="stroke:none" d="M 9.890625 0 L 9.609375 -2.09375 L 8.96875 -0.5625 C 8.46875 -0.238281 7.914062 -0.00390625 7.3125 0.140625 C 6.71875 0.296875 6.09375 0.375 5.4375 0.375 C 4.625 0.375 3.867188 0.210938 3.171875 -0.109375 C 2.484375 -0.429688 1.925781 -0.90625 1.5 -1.53125 C 1.070312 -2.15625 0.859375 -2.910156 0.859375 -3.796875 C 0.859375 -5.347656 1.523438 -6.554688 2.859375 -7.421875 C 4.203125 -8.285156 6.128906 -8.71875 8.640625 -8.71875 L 9.546875 -8.71875 L 9.546875 -8.96875 C 9.546875 -9.15625 9.546875 -9.347656 9.546875 -9.546875 C 9.546875 -9.742188 9.53125 -9.957031 9.5 -10.1875 C 9.457031 -10.613281 9.269531 -10.976562 8.9375 -11.28125 C 8.613281 -11.59375 8.140625 -11.75 7.515625 -11.75 C 6.859375 -11.75 6.347656 -11.554688 5.984375 -11.171875 C 5.628906 -10.785156 5.425781 -10.234375 5.375 -9.515625 L 1.359375 -9.515625 C 1.398438 -10.609375 1.703125 -11.53125 2.265625 -12.28125 C 2.828125 -13.039062 3.578125 -13.617188 4.515625 -14.015625 C 5.460938 -14.421875 6.515625 -14.625 7.671875 -14.625 C 9.085938 -14.625 10.21875 -14.4375 11.0625 -14.0625 C 11.90625 -13.695312 12.523438 -13.179688 12.921875 -12.515625 C 13.328125 -11.859375 13.566406 -11.101562 13.640625 -10.25 C 13.691406 -9.582031 13.71875 -8.8125 13.71875 -7.9375 L 13.71875 -3.609375 C 13.71875 -3.078125 13.734375 -2.535156 13.765625 -1.984375 C 13.804688 -1.441406 13.878906 -0.78125 13.984375 0 Z M 7.09375 -2.515625 C 7.71875 -2.515625 8.28125 -2.738281 8.78125 -3.1875 C 9.289062 -3.644531 9.546875 -4.3125 9.546875 -5.1875 L 9.546875 -6.234375 C 8.242188 -6.335938 7.1875 -6.222656 6.375 -5.890625 C 5.5625 -5.566406 5.15625 -4.984375 5.15625 -4.140625 C 5.15625 -3.609375 5.332031 -3.203125 5.6875 -2.921875 C 6.050781 -2.648438 6.519531 -2.515625 7.09375 -2.515625 Z M 7.09375 -2.515625 "/></g></g><g style="fill:#191825;fill-opacity:1;"><g transform="translate(112.023021, 40.491154)"><path style="stroke:none" d="M 9.4375 -14.625 C 9.675781 -14.625 9.875 -14.613281 10.03125 -14.59375 C 10.1875 -14.582031 10.347656 -14.5625 10.515625 -14.53125 L 10.515625 -11.125 C 8.859375 -11.226562 7.65625 -10.894531 6.90625 -10.125 C 6.15625 -9.363281 5.78125 -7.976562 5.78125 -5.96875 L 5.78125 0 L 1.578125 0 L 1.578125 -14.25 L 5.78125 -14.25 L 5.78125 -11.53125 L 6.84375 -13.515625 C 7.207031 -13.890625 7.628906 -14.164062 8.109375 -14.34375 C 8.585938 -14.53125 9.03125 -14.625 9.4375 -14.625 Z M 9.4375 -14.625 "/></g></g><g style="fill:#191825;fill-opacity:1;"><g transform="translate(122.668759, 40.491154)"><path style="stroke:none" d="M 6.609375 -11.46875 L 6.609375 -5.484375 C 6.609375 -5.253906 6.609375 -5.019531 6.609375 -4.78125 C 6.609375 -4.550781 6.617188 -4.335938 6.640625 -4.140625 C 6.691406 -3.429688 6.890625 -2.96875 7.234375 -2.75 C 7.578125 -2.539062 8.285156 -2.472656 9.359375 -2.546875 L 9.359375 0.140625 C 8.929688 0.203125 8.507812 0.25 8.09375 0.28125 C 7.675781 0.320312 7.234375 0.34375 6.765625 0.34375 C 5.191406 0.34375 4.101562 0.0859375 3.5 -0.421875 C 2.894531 -0.941406 2.550781 -1.71875 2.46875 -2.75 C 2.445312 -3.113281 2.429688 -3.46875 2.421875 -3.8125 C 2.410156 -4.15625 2.40625 -4.523438 2.40625 -4.921875 L 2.40625 -11.46875 L 0.234375 -11.46875 L 0.234375 -14.15625 L 2.40625 -14.15625 L 2.40625 -17.734375 L 6.609375 -17.734375 L 6.609375 -14.15625 L 9.625 -14.15625 L 9.625 -11.46875 Z M 6.609375 -11.46875 "/></g></g></g></svg>