<svg xmlns="http://www.w3.org/2000/svg" xmlns:xlink="http://www.w3.org/1999/xlink" width="299" zoomAndPan="magnify" viewBox="0 0 224.25 94.499997" height="126" preserveAspectRatio="xMidYMid meet" version="1.2"><defs><clipPath id="04958e8028"><path d="M 0.21875 0 L 222.777344 0 L 222.777344 93.707031 L 0.21875 93.707031 Z M 0.21875 0 "/></clipPath><clipPath id="65b82a9948"><path d="M 17.375 0 L 205.480469 0 C 210.03125 0 214.394531 1.808594 217.613281 5.027344 C 220.832031 8.242188 222.640625 12.609375 222.640625 17.160156 L 222.640625 76.550781 C 222.640625 81.101562 220.832031 85.464844 217.613281 88.683594 C 214.394531 91.902344 210.03125 93.707031 205.480469 93.707031 L 17.375 93.707031 C 12.824219 93.707031 8.460938 91.902344 5.242188 88.683594 C 2.023438 85.464844 0.21875 81.101562 0.21875 76.550781 L 0.21875 17.160156 C 0.21875 12.609375 2.023438 8.242188 5.242188 5.027344 C 8.460938 1.808594 12.824219 0 17.375 0 Z M 17.375 0 "/></clipPath><clipPath id="b6854f7123"><path d="M 0.226562 0 L 222.539062 0 L 222.539062 94 L 0.226562 94 Z M 0.226562 0 "/></clipPath><clipPath id="221fc05a86"><path d="M 17.375 0 L 205.382812 0 C 209.929688 0 214.292969 1.808594 217.507812 5.023438 C 220.726562 8.238281 222.53125 12.601562 222.53125 17.148438 L 222.53125 76.511719 C 222.53125 81.058594 220.726562 85.421875 217.507812 88.636719 C 214.292969 91.851562 209.929688 93.660156 205.382812 93.660156 L 17.375 93.660156 C 12.828125 93.660156 8.464844 91.851562 5.25 88.636719 C 2.03125 85.421875 0.226562 81.058594 0.226562 76.511719 L 0.226562 17.148438 C 0.226562 12.601562 2.03125 8.238281 5.25 5.023438 C 8.464844 1.808594 12.828125 0 17.375 0 Z M 17.375 0 "/></clipPath><linearGradient x1="-0.000000000314128" gradientTransform="matrix(1.952789,0,0,1.952789,0.000000000613425,-0.000000000000014217)" y1="32.158001" x2="152.655119" gradientUnits="userSpaceOnUse" y2="32.158001" id="b07960983b"><stop style="stop-color:#9aadf9;stop-opacity:1;" offset="0"/><stop style="stop-color:#9aadf9;stop-opacity:1;" offset="0.0078125"/><stop style="stop-color:#9baef8;stop-opacity:1;" offset="0.015625"/><stop style="stop-color:#9baef7;stop-opacity:1;" offset="0.0234375"/><stop style="stop-color:#9baff7;stop-opacity:1;" offset="0.03125"/><stop style="stop-color:#9cb0f6;stop-opacity:1;" offset="0.0390625"/><stop style="stop-color:#9cb0f6;stop-opacity:1;" offset="0.046875"/><stop style="stop-color:#9cb1f5;stop-opacity:1;" offset="0.0546875"/><stop style="stop-color:#9db1f4;stop-opacity:1;" offset="0.0625"/><stop style="stop-color:#9db2f4;stop-opacity:1;" offset="0.0703125"/><stop style="stop-color:#9db3f3;stop-opacity:1;" offset="0.078125"/><stop style="stop-color:#9eb3f3;stop-opacity:1;" offset="0.0859375"/><stop style="stop-color:#9eb4f2;stop-opacity:1;" offset="0.09375"/><stop style="stop-color:#9eb5f1;stop-opacity:1;" offset="0.101562"/><stop style="stop-color:#9fb5f1;stop-opacity:1;" offset="0.109375"/><stop style="stop-color:#9fb6f0;stop-opacity:1;" offset="0.117188"/><stop style="stop-color:#9fb6ef;stop-opacity:1;" offset="0.125"/><stop style="stop-color:#a0b7ef;stop-opacity:1;" offset="0.132813"/><stop style="stop-color:#a0b8ee;stop-opacity:1;" offset="0.140625"/><stop style="stop-color:#a0b8ee;stop-opacity:1;" offset="0.148438"/><stop style="stop-color:#a1b9ed;stop-opacity:1;" offset="0.15625"/><stop style="stop-color:#a1b9ec;stop-opacity:1;" offset="0.164063"/><stop style="stop-color:#a1baec;stop-opacity:1;" offset="0.171875"/><stop style="stop-color:#a2bbeb;stop-opacity:1;" offset="0.179688"/><stop style="stop-color:#a2bbeb;stop-opacity:1;" offset="0.1875"/><stop style="stop-color:#a2bcea;stop-opacity:1;" offset="0.195313"/><stop style="stop-color:#a3bce9;stop-opacity:1;" offset="0.203125"/><stop style="stop-color:#a3bde9;stop-opacity:1;" offset="0.210938"/><stop style="stop-color:#a3bee8;stop-opacity:1;" offset="0.21875"/><stop style="stop-color:#a4bee8;stop-opacity:1;" offset="0.226562"/><stop style="stop-color:#a4bfe7;stop-opacity:1;" offset="0.234375"/><stop style="stop-color:#a4bfe6;stop-opacity:1;" offset="0.242188"/><stop style="stop-color:#a5c0e6;stop-opacity:1;" offset="0.25"/><stop style="stop-color:#a5c1e5;stop-opacity:1;" offset="0.257813"/><stop style="stop-color:#a5c1e5;stop-opacity:1;" offset="0.265625"/><stop style="stop-color:#a6c2e4;stop-opacity:1;" offset="0.273438"/><stop style="stop-color:#a6c3e3;stop-opacity:1;" offset="0.28125"/><stop style="stop-color:#a7c3e3;stop-opacity:1;" offset="0.289062"/><stop style="stop-color:#a7c4e2;stop-opacity:1;" offset="0.296875"/><stop style="stop-color:#a7c4e2;stop-opacity:1;" offset="0.304688"/><stop style="stop-color:#a8c5e1;stop-opacity:1;" offset="0.3125"/><stop style="stop-color:#a8c6e0;stop-opacity:1;" offset="0.320312"/><stop style="stop-color:#a8c6e0;stop-opacity:1;" offset="0.328125"/><stop style="stop-color:#a9c7df;stop-opacity:1;" offset="0.335937"/><stop style="stop-color:#a9c7df;stop-opacity:1;" offset="0.34375"/><stop style="stop-color:#a9c8de;stop-opacity:1;" offset="0.351563"/><stop style="stop-color:#aac9dd;stop-opacity:1;" offset="0.359375"/><stop style="stop-color:#aac9dd;stop-opacity:1;" offset="0.367188"/><stop style="stop-color:#aacadc;stop-opacity:1;" offset="0.375"/><stop style="stop-color:#abcadc;stop-opacity:1;" offset="0.382812"/><stop style="stop-color:#abcbdb;stop-opacity:1;" offset="0.390625"/><stop style="stop-color:#abccda;stop-opacity:1;" offset="0.398437"/><stop style="stop-color:#acccda;stop-opacity:1;" offset="0.40625"/><stop style="stop-color:#accdd9;stop-opacity:1;" offset="0.414063"/><stop style="stop-color:#acced8;stop-opacity:1;" offset="0.421875"/><stop style="stop-color:#adced8;stop-opacity:1;" offset="0.429688"/><stop style="stop-color:#adcfd7;stop-opacity:1;" offset="0.4375"/><stop style="stop-color:#adcfd7;stop-opacity:1;" offset="0.445312"/><stop style="stop-color:#aed0d6;stop-opacity:1;" offset="0.453125"/><stop style="stop-color:#aed1d5;stop-opacity:1;" offset="0.460938"/><stop style="stop-color:#aed1d5;stop-opacity:1;" offset="0.46875"/><stop style="stop-color:#afd2d4;stop-opacity:1;" offset="0.476563"/><stop style="stop-color:#afd2d4;stop-opacity:1;" offset="0.484375"/><stop style="stop-color:#afd3d3;stop-opacity:1;" offset="0.492188"/><stop style="stop-color:#b0d4d2;stop-opacity:1;" offset="0.5"/><stop style="stop-color:#b0d4d2;stop-opacity:1;" offset="0.503906"/><stop style="stop-color:#b1d3d2;stop-opacity:1;" offset="0.507813"/><stop style="stop-color:#b1d3d2;stop-opacity:1;" offset="0.511719"/><stop style="stop-color:#b2d3d2;stop-opacity:1;" offset="0.515625"/><stop style="stop-color:#b3d2d2;stop-opacity:1;" offset="0.519531"/><stop style="stop-color:#b3d2d2;stop-opacity:1;" offset="0.523438"/><stop style="stop-color:#b4d2d3;stop-opacity:1;" offset="0.527344"/><stop style="stop-color:#b4d1d3;stop-opacity:1;" offset="0.53125"/><stop style="stop-color:#b5d1d3;stop-opacity:1;" offset="0.535156"/><stop style="stop-color:#b5d1d3;stop-opacity:1;" offset="0.539063"/><stop style="stop-color:#b6d1d3;stop-opacity:1;" offset="0.542969"/><stop style="stop-color:#b6d0d3;stop-opacity:1;" offset="0.546875"/><stop style="stop-color:#b7d0d3;stop-opacity:1;" offset="0.550781"/><stop style="stop-color:#b7d0d3;stop-opacity:1;" offset="0.554688"/><stop style="stop-color:#b8cfd3;stop-opacity:1;" offset="0.558594"/><stop style="stop-color:#b8cfd3;stop-opacity:1;" offset="0.5625"/><stop style="stop-color:#b9cfd3;stop-opacity:1;" offset="0.566406"/><stop style="stop-color:#b9ced3;stop-opacity:1;" offset="0.570313"/><stop style="stop-color:#baced3;stop-opacity:1;" offset="0.574219"/><stop style="stop-color:#baced3;stop-opacity:1;" offset="0.578125"/><stop style="stop-color:#bbced3;stop-opacity:1;" offset="0.582031"/><stop style="stop-color:#bbcdd3;stop-opacity:1;" offset="0.585938"/><stop style="stop-color:#bccdd4;stop-opacity:1;" offset="0.589844"/><stop style="stop-color:#bccdd4;stop-opacity:1;" offset="0.59375"/><stop style="stop-color:#bdccd4;stop-opacity:1;" offset="0.597656"/><stop style="stop-color:#bdccd4;stop-opacity:1;" offset="0.601563"/><stop style="stop-color:#beccd4;stop-opacity:1;" offset="0.605469"/><stop style="stop-color:#becbd4;stop-opacity:1;" offset="0.609375"/><stop style="stop-color:#bfcbd4;stop-opacity:1;" offset="0.613281"/><stop style="stop-color:#bfcbd4;stop-opacity:1;" offset="0.617188"/><stop style="stop-color:#c0cad4;stop-opacity:1;" offset="0.621094"/><stop style="stop-color:#c0cad4;stop-opacity:1;" offset="0.625"/><stop style="stop-color:#c1cad4;stop-opacity:1;" offset="0.628906"/><stop style="stop-color:#c1cad4;stop-opacity:1;" offset="0.632813"/><stop style="stop-color:#c2c9d4;stop-opacity:1;" offset="0.636719"/><stop style="stop-color:#c3c9d4;stop-opacity:1;" offset="0.640625"/><stop style="stop-color:#c3c9d4;stop-opacity:1;" offset="0.644531"/><stop style="stop-color:#c4c8d4;stop-opacity:1;" offset="0.648438"/><stop style="stop-color:#c4c8d5;stop-opacity:1;" offset="0.652344"/><stop style="stop-color:#c5c8d5;stop-opacity:1;" offset="0.65625"/><stop style="stop-color:#c5c7d5;stop-opacity:1;" offset="0.660156"/><stop style="stop-color:#c6c7d5;stop-opacity:1;" offset="0.664063"/><stop style="stop-color:#c6c7d5;stop-opacity:1;" offset="0.667969"/><stop style="stop-color:#c7c6d5;stop-opacity:1;" offset="0.671875"/><stop style="stop-color:#c7c6d5;stop-opacity:1;" offset="0.675781"/><stop style="stop-color:#c8c6d5;stop-opacity:1;" offset="0.679688"/><stop style="stop-color:#c8c6d5;stop-opacity:1;" offset="0.683594"/><stop style="stop-color:#c9c5d5;stop-opacity:1;" offset="0.6875"/><stop style="stop-color:#c9c5d5;stop-opacity:1;" offset="0.691406"/><stop style="stop-color:#cac5d5;stop-opacity:1;" offset="0.695313"/><stop style="stop-color:#cac4d5;stop-opacity:1;" offset="0.699219"/><stop style="stop-color:#cbc4d5;stop-opacity:1;" offset="0.703125"/><stop style="stop-color:#cbc4d5;stop-opacity:1;" offset="0.707031"/><stop style="stop-color:#ccc3d5;stop-opacity:1;" offset="0.710938"/><stop style="stop-color:#ccc3d6;stop-opacity:1;" offset="0.714844"/><stop style="stop-color:#cdc3d6;stop-opacity:1;" offset="0.71875"/><stop style="stop-color:#cdc3d6;stop-opacity:1;" offset="0.722656"/><stop style="stop-color:#cec2d6;stop-opacity:1;" offset="0.726562"/><stop style="stop-color:#cec2d6;stop-opacity:1;" offset="0.730469"/><stop style="stop-color:#cfc2d6;stop-opacity:1;" offset="0.734375"/><stop style="stop-color:#cfc1d6;stop-opacity:1;" offset="0.738281"/><stop style="stop-color:#d0c1d6;stop-opacity:1;" offset="0.742188"/><stop style="stop-color:#d0c1d6;stop-opacity:1;" offset="0.746094"/><stop style="stop-color:#d1c0d6;stop-opacity:1;" offset="0.75"/><stop style="stop-color:#d1c0d6;stop-opacity:1;" offset="0.753906"/><stop style="stop-color:#d2c0d6;stop-opacity:1;" offset="0.757813"/><stop style="stop-color:#d3bfd6;stop-opacity:1;" offset="0.761719"/><stop style="stop-color:#d3bfd6;stop-opacity:1;" offset="0.765625"/><stop style="stop-color:#d4bfd6;stop-opacity:1;" offset="0.769531"/><stop style="stop-color:#d4bfd6;stop-opacity:1;" offset="0.773438"/><stop style="stop-color:#d5bed7;stop-opacity:1;" offset="0.777344"/><stop style="stop-color:#d5bed7;stop-opacity:1;" offset="0.78125"/><stop style="stop-color:#d6bed7;stop-opacity:1;" offset="0.785156"/><stop style="stop-color:#d6bdd7;stop-opacity:1;" offset="0.789063"/><stop style="stop-color:#d7bdd7;stop-opacity:1;" offset="0.792969"/><stop style="stop-color:#d7bdd7;stop-opacity:1;" offset="0.796875"/><stop style="stop-color:#d8bcd7;stop-opacity:1;" offset="0.800781"/><stop style="stop-color:#d8bcd7;stop-opacity:1;" offset="0.804688"/><stop style="stop-color:#d9bcd7;stop-opacity:1;" offset="0.808594"/><stop style="stop-color:#d9bcd7;stop-opacity:1;" offset="0.8125"/><stop style="stop-color:#dabbd7;stop-opacity:1;" offset="0.816406"/><stop style="stop-color:#dabbd7;stop-opacity:1;" offset="0.820313"/><stop style="stop-color:#dbbbd7;stop-opacity:1;" offset="0.824219"/><stop style="stop-color:#dbbad7;stop-opacity:1;" offset="0.828125"/><stop style="stop-color:#dcbad7;stop-opacity:1;" offset="0.832031"/><stop style="stop-color:#dcbad7;stop-opacity:1;" offset="0.835938"/><stop style="stop-color:#ddb9d7;stop-opacity:1;" offset="0.839844"/><stop style="stop-color:#ddb9d8;stop-opacity:1;" offset="0.84375"/><stop style="stop-color:#deb9d8;stop-opacity:1;" offset="0.847656"/><stop style="stop-color:#deb8d8;stop-opacity:1;" offset="0.851563"/><stop style="stop-color:#dfb8d8;stop-opacity:1;" offset="0.855469"/><stop style="stop-color:#dfb8d8;stop-opacity:1;" offset="0.859375"/><stop style="stop-color:#e0b8d8;stop-opacity:1;" offset="0.863281"/><stop style="stop-color:#e0b7d8;stop-opacity:1;" offset="0.867188"/><stop style="stop-color:#e1b7d8;stop-opacity:1;" offset="0.871094"/><stop style="stop-color:#e1b7d8;stop-opacity:1;" offset="0.875"/><stop style="stop-color:#e2b6d8;stop-opacity:1;" offset="0.878906"/><stop style="stop-color:#e3b6d8;stop-opacity:1;" offset="0.882812"/><stop style="stop-color:#e3b6d8;stop-opacity:1;" offset="0.886719"/><stop style="stop-color:#e4b5d8;stop-opacity:1;" offset="0.890625"/><stop style="stop-color:#e4b5d8;stop-opacity:1;" offset="0.894531"/><stop style="stop-color:#e5b5d8;stop-opacity:1;" offset="0.898438"/><stop style="stop-color:#e5b5d8;stop-opacity:1;" offset="0.902344"/><stop style="stop-color:#e6b4d9;stop-opacity:1;" offset="0.90625"/><stop style="stop-color:#e6b4d9;stop-opacity:1;" offset="0.910156"/><stop style="stop-color:#e7b4d9;stop-opacity:1;" offset="0.914062"/><stop style="stop-color:#e7b3d9;stop-opacity:1;" offset="0.917969"/><stop style="stop-color:#e8b3d9;stop-opacity:1;" offset="0.921875"/><stop style="stop-color:#e8b3d9;stop-opacity:1;" offset="0.925781"/><stop style="stop-color:#e9b2d9;stop-opacity:1;" offset="0.929688"/><stop style="stop-color:#e9b2d9;stop-opacity:1;" offset="0.933594"/><stop style="stop-color:#eab2d9;stop-opacity:1;" offset="0.9375"/><stop style="stop-color:#eab1d9;stop-opacity:1;" offset="0.941406"/><stop style="stop-color:#ebb1d9;stop-opacity:1;" offset="0.945313"/><stop style="stop-color:#ebb1d9;stop-opacity:1;" offset="0.949219"/><stop style="stop-color:#ecb1d9;stop-opacity:1;" offset="0.953125"/><stop style="stop-color:#ecb0d9;stop-opacity:1;" offset="0.957031"/><stop style="stop-color:#edb0d9;stop-opacity:1;" offset="0.960938"/><stop style="stop-color:#edb0d9;stop-opacity:1;" offset="0.964844"/><stop style="stop-color:#eeafda;stop-opacity:1;" offset="0.96875"/><stop style="stop-color:#eeafda;stop-opacity:1;" offset="0.972656"/><stop style="stop-color:#efafda;stop-opacity:1;" offset="0.976563"/><stop style="stop-color:#efaeda;stop-opacity:1;" offset="0.980469"/><stop style="stop-color:#f0aeda;stop-opacity:1;" offset="0.984375"/><stop style="stop-color:#f0aeda;stop-opacity:1;" offset="0.988281"/><stop style="stop-color:#f1adda;stop-opacity:1;" offset="0.992188"/><stop style="stop-color:#f1adda;stop-opacity:1;" offset="0.996094"/><stop style="stop-color:#f2adda;stop-opacity:1;" offset="1"/></linearGradient><clipPath id="df29cbe1fd"><path d="M 21.027344 41.035156 L 40.691406 41.035156 L 40.691406 50.867188 L 21.027344 50.867188 Z M 21.027344 41.035156 "/></clipPath><clipPath id="8cd6931196"><path d="M 40.6875 45.929688 C 40.6875 48.632812 38.496094 50.828125 35.789062 50.828125 L 26.003906 50.828125 C 23.304688 50.828125 21.066406 48.667969 21.046875 45.96875 C 21.027344 43.246094 23.226562 41.035156 25.941406 41.035156 L 35.789062 41.035156 C 38.492188 41.035156 40.6875 43.226562 40.6875 45.929688 "/></clipPath><clipPath id="e5df6744a9"><path d="M 29.636719 20.191406 L 40.6875 20.191406 L 40.6875 38.199219 L 29.636719 38.199219 Z M 29.636719 20.191406 "/></clipPath><clipPath id="86ae6ae51e"><path d="M 40.6875 28.074219 L 40.6875 38.164062 L 31.101562 28.578125 C 29.1875 26.667969 29.1875 23.566406 31.101562 21.652344 C 33.011719 19.742188 36.113281 19.742188 38.027344 21.652344 C 39.726562 23.355469 40.6875 25.667969 40.6875 28.074219 "/></clipPath><clipPath id="33f65e4c92"><path d="M 29.636719 53.695312 L 40.6875 53.695312 L 40.6875 71.660156 L 29.636719 71.660156 Z M 29.636719 53.695312 "/></clipPath><clipPath id="d21eeb88e7"><path d="M 40.6875 53.695312 L 40.6875 63.785156 C 40.6875 66.191406 39.726562 68.503906 38.027344 70.207031 C 36.113281 72.117188 33.015625 72.117188 31.101562 70.203125 C 29.1875 68.292969 29.1875 65.191406 31.101562 63.28125 Z M 40.6875 53.695312 "/></clipPath><clipPath id="4c0ed8c01e"><path d="M 50.480469 11.578125 L 60.355469 11.578125 L 60.355469 30.097656 L 50.480469 30.097656 Z M 50.480469 11.578125 "/></clipPath><clipPath id="1b9c241aa7"><path d="M 60.273438 16.558594 C 60.273438 18.925781 59.332031 21.199219 57.65625 22.871094 L 50.480469 30.050781 L 50.480469 16.496094 C 50.480469 13.777344 52.695312 11.578125 55.414062 11.597656 C 58.113281 11.617188 60.273438 13.859375 60.273438 16.558594 "/></clipPath><clipPath id="5038fec4bd"><path d="M 50.480469 61.785156 L 60.355469 61.785156 L 60.355469 80.304688 L 50.480469 80.304688 Z M 50.480469 61.785156 "/></clipPath><clipPath id="05d97f33a2"><path d="M 57.613281 68.941406 C 59.316406 70.644531 60.273438 72.957031 60.273438 75.363281 C 60.273438 77.882812 58.375 79.953125 55.929688 80.230469 C 55.929688 80.230469 55.925781 80.230469 55.925781 80.230469 C 55.742188 80.234375 55.558594 80.234375 55.375 80.234375 C 55.195312 80.234375 55.011719 80.234375 54.828125 80.230469 C 54.828125 80.230469 54.824219 80.230469 54.824219 80.230469 C 52.378906 79.957031 50.480469 77.882812 50.480469 75.367188 L 50.480469 61.808594 Z M 57.613281 68.941406 "/></clipPath><clipPath id="6a26dfacfa"><path d="M 50.480469 20.21875 L 89.710938 20.21875 L 89.710938 71.660156 L 50.480469 71.660156 Z M 50.480469 20.21875 "/></clipPath><clipPath id="f40aacfe64"><path d="M 89.703125 45.671875 C 89.847656 48.488281 87.546875 50.828125 84.726562 50.828125 L 67.242188 50.828125 C 67.226562 50.828125 67.21875 50.847656 67.230469 50.855469 L 79.65625 63.28125 C 81.566406 65.191406 81.566406 68.292969 79.652344 70.207031 C 77.75 72.109375 74.671875 72.121094 72.757812 70.238281 C 72.746094 70.226562 72.738281 70.21875 72.726562 70.207031 C 72.714844 70.195312 72.707031 70.1875 72.695312 70.175781 L 60.273438 57.753906 L 60.273438 57.75 L 55.378906 52.855469 L 55.375 52.855469 L 53.351562 50.828125 L 53.347656 50.828125 L 51.914062 49.390625 C 50.996094 48.472656 50.480469 47.230469 50.480469 45.929688 C 50.480469 44.628906 50.996094 43.386719 51.914062 42.46875 L 53.347656 41.03125 L 55.375 39.003906 L 60.273438 34.109375 L 72.699219 21.683594 L 72.730469 21.65625 L 72.757812 21.625 C 74.675781 19.742188 77.75 19.753906 79.65625 21.65625 C 81.566406 23.566406 81.566406 26.667969 79.65625 28.582031 L 67.230469 41.003906 C 67.21875 41.015625 67.226562 41.035156 67.242188 41.035156 L 84.8125 41.035156 C 87.429688 41.035156 89.566406 43.089844 89.703125 45.675781 "/></clipPath><clipPath id="43fe6a9b57"><path d="M 98.359375 27.550781 L 107.3125 27.550781 L 107.3125 37.996094 L 98.359375 37.996094 Z M 98.359375 27.550781 "/></clipPath></defs><g id="341d5b7146"><g clip-rule="nonzero" clip-path="url(#04958e8028)"><g clip-rule="nonzero" clip-path="url(#65b82a9948)"><path style=" stroke:none;fill-rule:nonzero;fill:#ffffff;fill-opacity:1;" d="M 0.21875 0 L 222.777344 0 L 222.777344 93.707031 L 0.21875 93.707031 Z M 0.21875 0 "/></g></g><g clip-rule="nonzero" clip-path="url(#b6854f7123)"><g clip-rule="nonzero" clip-path="url(#221fc05a86)"><path style="fill:none;stroke-width:20;stroke-linecap:butt;stroke-linejoin:miter;stroke:url(#b07960983b);stroke-miterlimit:4;" d="M 22.996998 -0.000000000000014217 L 275.106126 -0.000000000000014217 C 281.203259 -0.000000000000014217 287.054203 2.425234 291.365148 6.73618 C 295.681332 11.047126 298.101328 16.898069 298.101328 22.995202 L 298.101328 102.59841 C 298.101328 108.695544 295.681332 114.546487 291.365148 118.857432 C 287.054203 123.168378 281.203259 125.593612 275.106126 125.593612 L 22.996998 125.593612 C 16.899865 125.593612 11.048922 123.168378 6.737976 118.857432 C 2.421793 114.546487 0.00179632 108.695544 0.00179632 102.59841 L 0.00179632 22.995202 C 0.00179632 16.898069 2.421793 11.047126 6.737976 6.73618 C 11.048922 2.425234 16.899865 -0.000000000000014217 22.996998 -0.000000000000014217 Z M 22.996998 -0.000000000000014217 " transform="matrix(0.74574,0,0,0.74574,0.225223,0.000000000000010602)"/></g></g><g clip-rule="nonzero" clip-path="url(#df29cbe1fd)"><g clip-rule="nonzero" clip-path="url(#8cd6931196)"><path style=" stroke:none;fill-rule:nonzero;fill:#191825;fill-opacity:1;" d="M 21.027344 41.035156 L 40.691406 41.035156 L 40.691406 50.828125 L 21.027344 50.828125 Z M 21.027344 41.035156 "/></g></g><g clip-rule="nonzero" clip-path="url(#e5df6744a9)"><g clip-rule="nonzero" clip-path="url(#86ae6ae51e)"><path style=" stroke:none;fill-rule:nonzero;fill:#9aadf6;fill-opacity:1;" d="M 29.1875 19.742188 L 40.6875 19.742188 L 40.6875 38.15625 L 29.1875 38.15625 Z M 29.1875 19.742188 "/></g></g><g clip-rule="nonzero" clip-path="url(#33f65e4c92)"><g clip-rule="nonzero" clip-path="url(#d21eeb88e7)"><path style=" stroke:none;fill-rule:nonzero;fill:#fae16e;fill-opacity:1;" d="M 29.1875 53.695312 L 40.6875 53.695312 L 40.6875 72.109375 L 29.1875 72.109375 Z M 29.1875 53.695312 "/></g></g><g clip-rule="nonzero" clip-path="url(#4c0ed8c01e)"><g clip-rule="nonzero" clip-path="url(#1b9c241aa7)"><path style=" stroke:none;fill-rule:nonzero;fill:#f2adda;fill-opacity:1;" d="M 49.792969 10.890625 L 90.535156 10.890625 L 90.535156 80.988281 L 49.792969 80.988281 Z M 49.792969 10.890625 "/></g></g><g clip-rule="nonzero" clip-path="url(#5038fec4bd)"><g clip-rule="nonzero" clip-path="url(#05d97f33a2)"><path style=" stroke:none;fill-rule:nonzero;fill:#b0d4d2;fill-opacity:1;" d="M 49.792969 10.890625 L 90.535156 10.890625 L 90.535156 80.988281 L 49.792969 80.988281 Z M 49.792969 10.890625 "/></g></g><g clip-rule="nonzero" clip-path="url(#6a26dfacfa)"><g clip-rule="nonzero" clip-path="url(#f40aacfe64)"><path style=" stroke:none;fill-rule:nonzero;fill:#191825;fill-opacity:1;" d="M 49.792969 10.890625 L 90.535156 10.890625 L 90.535156 80.988281 L 49.792969 80.988281 Z M 49.792969 10.890625 "/></g></g><g clip-rule="nonzero" clip-path="url(#43fe6a9b57)"><path style=" stroke:none;fill-rule:nonzero;fill:#000000;fill-opacity:1;" d="M 107.027344 31.109375 C 106.960938 31.160156 105.835938 31.761719 105.835938 33.101562 C 105.835938 34.652344 107.269531 35.199219 107.3125 35.214844 C 107.304688 35.246094 107.082031 35.964844 106.554688 36.695312 C 106.085938 37.339844 105.59375 37.980469 104.847656 37.980469 C 104.097656 37.980469 103.90625 37.566406 103.042969 37.566406 C 102.203125 37.566406 101.902344 37.996094 101.21875 37.996094 C 100.535156 37.996094 100.058594 37.398438 99.507812 36.667969 C 98.875 35.808594 98.359375 34.476562 98.359375 33.210938 C 98.359375 31.179688 99.75 30.101562 101.117188 30.101562 C 101.84375 30.101562 102.449219 30.554688 102.90625 30.554688 C 103.339844 30.554688 104.019531 30.074219 104.84375 30.074219 C 105.160156 30.074219 106.285156 30.101562 107.027344 31.109375 Z M 104.453125 29.214844 C 104.792969 28.832031 105.035156 28.296875 105.035156 27.761719 C 105.035156 27.6875 105.03125 27.609375 105.015625 27.550781 C 104.460938 27.570312 103.796875 27.902344 103.398438 28.34375 C 103.085938 28.679688 102.792969 29.214844 102.792969 29.757812 C 102.792969 29.839844 102.808594 29.921875 102.8125 29.945312 C 102.847656 29.953125 102.90625 29.960938 102.964844 29.960938 C 103.460938 29.960938 104.089844 29.644531 104.453125 29.214844 Z M 104.453125 29.214844 "/></g><g style="fill:#191825;fill-opacity:1;"><g transform="translate(96.648513, 60.228627)"><path style="stroke:none" d="M 5.453125 -29.390625 C 6.460938 -29.390625 7.269531 -29.101562 7.875 -28.53125 C 8.488281 -27.96875 8.796875 -27.207031 8.796875 -26.25 C 8.796875 -25.269531 8.488281 -24.492188 7.875 -23.921875 C 7.269531 -23.359375 6.460938 -23.078125 5.453125 -23.078125 C 4.472656 -23.078125 3.675781 -23.359375 3.0625 -23.921875 C 2.445312 -24.492188 2.140625 -25.269531 2.140625 -26.25 C 2.140625 -27.207031 2.445312 -27.96875 3.0625 -28.53125 C 3.675781 -29.101562 4.472656 -29.390625 5.453125 -29.390625 Z M 8.59375 0 L 2.34375 0 L 2.34375 -21.203125 L 8.59375 -21.203125 Z M 8.59375 0 "/></g></g><g style="fill:#191825;fill-opacity:1;"><g transform="translate(107.629584, 60.228627)"><path style="stroke:none" d="M 33.78125 -27.453125 L 33.78125 0 L 27.53125 0 L 27.53125 -12.171875 C 27.53125 -13.492188 27.535156 -14.988281 27.546875 -16.65625 C 27.554688 -18.332031 27.578125 -19.875 27.609375 -21.28125 C 27.335938 -19.875 26.988281 -18.34375 26.5625 -16.6875 C 26.144531 -15.03125 25.738281 -13.539062 25.34375 -12.21875 L 21.875 0 L 15.28125 0 L 11.734375 -12.21875 C 11.359375 -13.539062 10.96875 -15.023438 10.5625 -16.671875 C 10.15625 -18.316406 9.816406 -19.84375 9.546875 -21.25 C 9.597656 -19.84375 9.625 -18.304688 9.625 -16.640625 C 9.625 -14.984375 9.625 -13.492188 9.625 -12.171875 L 9.625 0 L 3.375 0 L 3.375 -27.453125 L 13.171875 -27.453125 L 18.703125 -5.921875 L 24.234375 -27.453125 Z M 33.78125 -27.453125 "/></g></g><g style="fill:#191825;fill-opacity:1;"><g transform="translate(143.795502, 60.228627)"><path style="stroke:none" d="M 14.71875 0 L 14.28125 -3.109375 L 13.328125 -0.828125 C 12.585938 -0.359375 11.769531 -0.0078125 10.875 0.21875 C 9.988281 0.445312 9.054688 0.5625 8.078125 0.5625 C 6.878906 0.5625 5.765625 0.320312 4.734375 -0.15625 C 3.703125 -0.632812 2.863281 -1.335938 2.21875 -2.265625 C 1.582031 -3.191406 1.265625 -4.320312 1.265625 -5.65625 C 1.265625 -7.957031 2.257812 -9.75 4.25 -11.03125 C 6.238281 -12.320312 9.101562 -12.96875 12.84375 -12.96875 L 14.203125 -12.96875 L 14.203125 -13.328125 C 14.203125 -13.617188 14.203125 -13.910156 14.203125 -14.203125 C 14.203125 -14.492188 14.175781 -14.8125 14.125 -15.15625 C 14.070312 -15.789062 13.800781 -16.332031 13.3125 -16.78125 C 12.820312 -17.238281 12.109375 -17.46875 11.171875 -17.46875 C 10.191406 -17.46875 9.4375 -17.179688 8.90625 -16.609375 C 8.375 -16.035156 8.070312 -15.21875 8 -14.15625 L 2.03125 -14.15625 C 2.082031 -15.78125 2.523438 -17.15625 3.359375 -18.28125 C 4.191406 -19.40625 5.3125 -20.265625 6.71875 -20.859375 C 8.125 -21.460938 9.691406 -21.765625 11.421875 -21.765625 C 13.515625 -21.765625 15.191406 -21.484375 16.453125 -20.921875 C 17.710938 -20.367188 18.640625 -19.597656 19.234375 -18.609375 C 19.828125 -17.628906 20.175781 -16.503906 20.28125 -15.234375 C 20.363281 -14.253906 20.40625 -13.113281 20.40625 -11.8125 L 20.40625 -5.375 C 20.40625 -4.570312 20.429688 -3.765625 20.484375 -2.953125 C 20.535156 -2.148438 20.644531 -1.164062 20.8125 0 Z M 10.546875 -3.734375 C 11.472656 -3.734375 12.3125 -4.070312 13.0625 -4.75 C 13.820312 -5.425781 14.203125 -6.414062 14.203125 -7.71875 L 14.203125 -9.265625 C 12.265625 -9.421875 10.691406 -9.253906 9.484375 -8.765625 C 8.273438 -8.273438 7.671875 -7.410156 7.671875 -6.171875 C 7.671875 -5.367188 7.9375 -4.757812 8.46875 -4.34375 C 9 -3.9375 9.691406 -3.734375 10.546875 -3.734375 Z M 10.546875 -3.734375 "/></g></g><g style="fill:#191825;fill-opacity:1;"><g transform="translate(166.593158, 60.228627)"><path style="stroke:none" d="M 14.046875 -21.765625 C 14.390625 -21.765625 14.679688 -21.75 14.921875 -21.71875 C 15.160156 -21.695312 15.398438 -21.65625 15.640625 -21.59375 L 15.640625 -16.546875 C 13.171875 -16.703125 11.378906 -16.207031 10.265625 -15.0625 C 9.148438 -13.925781 8.59375 -11.863281 8.59375 -8.875 L 8.59375 0 L 2.34375 0 L 2.34375 -21.203125 L 8.59375 -21.203125 L 8.59375 -17.140625 L 10.1875 -20.09375 C 10.71875 -20.644531 11.335938 -21.0625 12.046875 -21.34375 C 12.765625 -21.625 13.429688 -21.765625 14.046875 -21.765625 Z M 14.046875 -21.765625 "/></g></g><g style="fill:#191825;fill-opacity:1;"><g transform="translate(182.428178, 60.228627)"><path style="stroke:none" d="M 9.828125 -17.0625 L 9.828125 -8.15625 C 9.828125 -7.8125 9.828125 -7.46875 9.828125 -7.125 C 9.828125 -6.78125 9.835938 -6.460938 9.859375 -6.171875 C 9.941406 -5.109375 10.238281 -4.414062 10.75 -4.09375 C 11.269531 -3.78125 12.328125 -3.675781 13.921875 -3.78125 L 13.921875 0.203125 C 13.285156 0.304688 12.65625 0.382812 12.03125 0.4375 C 11.40625 0.488281 10.75 0.515625 10.0625 0.515625 C 7.726562 0.515625 6.109375 0.128906 5.203125 -0.640625 C 4.304688 -1.410156 3.789062 -2.5625 3.65625 -4.09375 C 3.632812 -4.625 3.613281 -5.144531 3.59375 -5.65625 C 3.582031 -6.175781 3.578125 -6.726562 3.578125 -7.3125 L 3.578125 -17.0625 L 0.359375 -17.0625 L 0.359375 -21.046875 L 3.578125 -21.046875 L 3.578125 -26.375 L 9.828125 -26.375 L 9.828125 -21.046875 L 14.328125 -21.046875 L 14.328125 -17.0625 Z M 9.828125 -17.0625 "/></g></g></g></svg>